<svg xmlns="http://www.w3.org/2000/svg" version="1.1" xmlns:xlink="http://www.w3.org/1999/xlink" xmlns:svgjs="http://svgjs.dev/svgjs" width="1900" height="1080" preserveAspectRatio="none" viewBox="0 0 1900 1080"><g mask="url(&quot;#SvgjsMask1190&quot;)" fill="none"><rect width="1900" height="1080" x="0" y="0" fill="rgba(146, 65, 77, 1)"></rect><g mask="url(&quot;#SvgjsMask1191&quot;)"><path d="M931.5 517.5L908.5 494.5L908.5 471.5L908.5 448.5L908.5 425.5L908.5 402.5L908.5 379.5M954.5 977.5L931.5 954.5M931.5 770.5L908.5 747.5L908.5 724.5M931.5 701.5L908.5 678.5M931.5 333.5L908.5 310.5L908.5 287.5L908.5 264.5L908.5 241.5M931.5 885.5L908.5 862.5L908.5 839.5L908.5 816.5L908.5 793.5L908.5 770.5L885.5 747.5L885.5 724.5L908.5 701.5M931.5 632.5L908.5 609.5L908.5 586.5M931.5 540.5L908.5 517.5L885.5 494.5L885.5 471.5L885.5 448.5L885.5 425.5L885.5 402.5L885.5 379.5L885.5 356.5L885.5 333.5L885.5 310.5M954.5 1092.5L954.5 1069.5L954.5 1046.5L954.5 1023.5L954.5 1000.5L954.5 977.5L954.5 954.5L931.5 931.5L931.5 908.5L931.5 885.5L931.5 862.5L931.5 839.5L931.5 816.5L931.5 793.5L931.5 770.5L931.5 747.5L931.5 724.5L931.5 701.5L931.5 678.5L931.5 655.5L931.5 632.5L931.5 609.5L931.5 586.5L931.5 563.5L931.5 540.5L931.5 517.5L931.5 494.5L931.5 471.5L931.5 448.5L931.5 425.5L931.5 402.5L931.5 379.5L931.5 356.5L931.5 333.5L931.5 310.5" stroke="rgba(14, 55, 79, 1)" stroke-width="3.83"></path><path d="M925.75 310.5 a5.75 5.75 0 1 0 11.5 0 a5.75 5.75 0 1 0 -11.5 0zM902.75 379.5 a5.75 5.75 0 1 0 11.5 0 a5.75 5.75 0 1 0 -11.5 0zM925.75 954.5 a5.75 5.75 0 1 0 11.5 0 a5.75 5.75 0 1 0 -11.5 0zM902.75 724.5 a5.75 5.75 0 1 0 11.5 0 a5.75 5.75 0 1 0 -11.5 0zM902.75 678.5 a5.75 5.75 0 1 0 11.5 0 a5.75 5.75 0 1 0 -11.5 0zM902.75 241.5 a5.75 5.75 0 1 0 11.5 0 a5.75 5.75 0 1 0 -11.5 0zM902.75 701.5 a5.75 5.75 0 1 0 11.5 0 a5.75 5.75 0 1 0 -11.5 0zM902.75 586.5 a5.75 5.75 0 1 0 11.5 0 a5.75 5.75 0 1 0 -11.5 0zM879.75 310.5 a5.75 5.75 0 1 0 11.5 0 a5.75 5.75 0 1 0 -11.5 0z" fill="rgba(14, 55, 79, 1)"></path><path d="M931.5 1023.5L931.5 1000.5L931.5 977.5M931.5 1092.5L931.5 1069.5L931.5 1046.5L931.5 1023.5L908.5 1000.5L908.5 977.5L908.5 954.5L908.5 931.5L908.5 908.5" stroke="rgba(255, 179, 112, 1)" stroke-width="3.83"></path><path d="M902.75 908.5 a5.75 5.75 0 1 0 11.5 0 a5.75 5.75 0 1 0 -11.5 0zM925.75 977.5 a5.75 5.75 0 1 0 11.5 0 a5.75 5.75 0 1 0 -11.5 0z" fill="rgba(255, 179, 112, 1)"></path><path d="M954.5 563.5L977.5 540.5L977.5 517.5M954.5 816.5L977.5 793.5L977.5 770.5L977.5 747.5M954.5 586.5L977.5 563.5M954.5 678.5L977.5 655.5L977.5 632.5M954.5 724.5L977.5 701.5L977.5 678.5L1000.5 655.5L1000.5 632.5L1000.5 609.5L977.5 586.5M954.5 862.5L977.5 839.5L977.5 816.5L1000.5 793.5L1000.5 770.5L1000.5 747.5L1000.5 724.5L1000.5 701.5L1023.5 678.5L1023.5 655.5L1023.5 632.5M954.5 908.5L977.5 885.5M977.5 1092.5L977.5 1069.5L977.5 1046.5L977.5 1023.5L977.5 1000.5L977.5 977.5L977.5 954.5L954.5 931.5L954.5 908.5L954.5 885.5L954.5 862.5L954.5 839.5L954.5 816.5L954.5 793.5L954.5 770.5L954.5 747.5L954.5 724.5L954.5 701.5L954.5 678.5L954.5 655.5L954.5 632.5L954.5 609.5L954.5 586.5L954.5 563.5L954.5 540.5L954.5 517.5L954.5 494.5L954.5 471.5" stroke="rgba(14, 55, 79, 1)" stroke-width="3.83"></path><path d="M948.75 471.5 a5.75 5.75 0 1 0 11.5 0 a5.75 5.75 0 1 0 -11.5 0zM971.75 517.5 a5.75 5.75 0 1 0 11.5 0 a5.75 5.75 0 1 0 -11.5 0zM971.75 747.5 a5.75 5.75 0 1 0 11.5 0 a5.75 5.75 0 1 0 -11.5 0zM971.75 563.5 a5.75 5.75 0 1 0 11.5 0 a5.75 5.75 0 1 0 -11.5 0zM971.75 632.5 a5.75 5.75 0 1 0 11.5 0 a5.75 5.75 0 1 0 -11.5 0zM971.75 586.5 a5.75 5.75 0 1 0 11.5 0 a5.75 5.75 0 1 0 -11.5 0zM1017.75 632.5 a5.75 5.75 0 1 0 11.5 0 a5.75 5.75 0 1 0 -11.5 0zM971.75 885.5 a5.75 5.75 0 1 0 11.5 0 a5.75 5.75 0 1 0 -11.5 0z" fill="rgba(14, 55, 79, 1)"></path><path d="M908.5 1046.5L908.5 1023.5M908.5 1092.5L908.5 1069.5L908.5 1046.5L885.5 1023.5L885.5 1000.5L885.5 977.5L885.5 954.5L885.5 931.5L885.5 908.5L885.5 885.5L885.5 862.5" stroke="rgba(56, 67, 88, 1)" stroke-width="3.83"></path><path d="M879.75 862.5 a5.75 5.75 0 1 0 11.5 0 a5.75 5.75 0 1 0 -11.5 0zM902.75 1023.5 a5.75 5.75 0 1 0 11.5 0 a5.75 5.75 0 1 0 -11.5 0z" fill="rgba(56, 67, 88, 1)"></path><path d="M1000.5 931.5L977.5 908.5M1000.5 1092.5L1000.5 1069.5L1000.5 1046.5L1000.5 1023.5L1000.5 1000.5L1000.5 977.5L1000.5 954.5L1000.5 931.5L1000.5 908.5L1000.5 885.5L1000.5 862.5" stroke="rgba(14, 55, 79, 1)" stroke-width="3.83"></path><path d="M994.75 862.5 a5.75 5.75 0 1 0 11.5 0 a5.75 5.75 0 1 0 -11.5 0zM971.75 908.5 a5.75 5.75 0 1 0 11.5 0 a5.75 5.75 0 1 0 -11.5 0z" fill="rgba(14, 55, 79, 1)"></path><path d="M862.5 425.5L839.5 402.5L839.5 379.5L839.5 356.5L839.5 333.5L839.5 310.5L839.5 287.5L839.5 264.5L839.5 241.5M862.5 586.5L839.5 563.5L816.5 540.5L816.5 517.5M862.5 678.5L862.5 655.5L862.5 632.5L862.5 609.5L885.5 586.5L885.5 563.5L885.5 540.5L885.5 517.5M862.5 287.5L885.5 264.5L885.5 241.5M862.5 793.5L885.5 770.5M862.5 471.5L839.5 448.5L839.5 425.5L816.5 402.5L816.5 379.5L816.5 356.5M862.5 494.5L839.5 471.5L816.5 448.5L816.5 425.5L793.5 402.5M862.5 517.5L839.5 494.5L816.5 471.5L793.5 448.5L793.5 425.5M862.5 540.5L839.5 517.5M885.5 1092.5L885.5 1069.5L885.5 1046.5L862.5 1023.5L862.5 1000.5L862.5 977.5L862.5 954.5L862.5 931.5L862.5 908.5L862.5 885.5L862.5 862.5L862.5 839.5L862.5 816.5L862.5 793.5L862.5 770.5L862.5 747.5L862.5 724.5L862.5 701.5L862.5 678.5L839.5 655.5L839.5 632.5L839.5 609.5L862.5 586.5L862.5 563.5L862.5 540.5L862.5 517.5L862.5 494.5L862.5 471.5L862.5 448.5L862.5 425.5L862.5 402.5L862.5 379.5L862.5 356.5L862.5 333.5L862.5 310.5L862.5 287.5L862.5 264.5L862.5 241.5" stroke="rgba(255, 179, 112, 1)" stroke-width="3.83"></path><path d="M856.75 241.5 a5.75 5.75 0 1 0 11.5 0 a5.75 5.75 0 1 0 -11.5 0zM833.75 241.5 a5.75 5.75 0 1 0 11.5 0 a5.75 5.75 0 1 0 -11.5 0zM810.75 517.5 a5.75 5.75 0 1 0 11.5 0 a5.75 5.75 0 1 0 -11.5 0zM879.75 517.5 a5.75 5.75 0 1 0 11.5 0 a5.75 5.75 0 1 0 -11.5 0zM879.75 241.5 a5.75 5.75 0 1 0 11.5 0 a5.75 5.75 0 1 0 -11.5 0zM879.75 770.5 a5.75 5.75 0 1 0 11.5 0 a5.75 5.75 0 1 0 -11.5 0zM810.75 356.5 a5.75 5.75 0 1 0 11.5 0 a5.75 5.75 0 1 0 -11.5 0zM787.75 402.5 a5.75 5.75 0 1 0 11.5 0 a5.75 5.75 0 1 0 -11.5 0zM787.75 425.5 a5.75 5.75 0 1 0 11.5 0 a5.75 5.75 0 1 0 -11.5 0zM833.75 517.5 a5.75 5.75 0 1 0 11.5 0 a5.75 5.75 0 1 0 -11.5 0z" fill="rgba(255, 179, 112, 1)"></path><path d="M1046.5 632.5L1069.5 609.5L1069.5 586.5L1069.5 563.5L1069.5 540.5M1023.5 839.5L1000.5 816.5M1046.5 609.5L1046.5 586.5L1046.5 563.5L1046.5 540.5M1023.5 586.5L1000.5 563.5L1000.5 540.5L1000.5 517.5L1000.5 494.5L1000.5 471.5L1000.5 448.5L1000.5 425.5M1023.5 724.5L1023.5 701.5M1046.5 655.5L1069.5 632.5M1023.5 1092.5L1023.5 1069.5L1023.5 1046.5L1023.5 1023.5L1023.5 1000.5L1023.5 977.5L1023.5 954.5L1023.5 931.5L1023.5 908.5L1023.5 885.5L1023.5 862.5L1023.5 839.5L1023.5 816.5L1023.5 793.5L1023.5 770.5L1023.5 747.5L1023.5 724.5L1046.5 701.5L1046.5 678.5L1046.5 655.5L1046.5 632.5L1046.5 609.5L1023.5 586.5L1023.5 563.5" stroke="rgba(56, 67, 88, 1)" stroke-width="3.83"></path><path d="M1017.75 563.5 a5.75 5.75 0 1 0 11.5 0 a5.75 5.75 0 1 0 -11.5 0zM1063.75 540.5 a5.75 5.75 0 1 0 11.5 0 a5.75 5.75 0 1 0 -11.5 0zM994.75 816.5 a5.75 5.75 0 1 0 11.5 0 a5.75 5.75 0 1 0 -11.5 0zM1040.75 540.5 a5.75 5.75 0 1 0 11.5 0 a5.75 5.75 0 1 0 -11.5 0zM994.75 425.5 a5.75 5.75 0 1 0 11.5 0 a5.75 5.75 0 1 0 -11.5 0zM1017.75 701.5 a5.75 5.75 0 1 0 11.5 0 a5.75 5.75 0 1 0 -11.5 0zM1063.75 632.5 a5.75 5.75 0 1 0 11.5 0 a5.75 5.75 0 1 0 -11.5 0z" fill="rgba(56, 67, 88, 1)"></path><path d="M770.5 379.5L747.5 356.5L747.5 333.5L747.5 310.5L747.5 287.5L747.5 264.5L747.5 241.5M839.5 885.5L816.5 862.5M839.5 793.5L816.5 770.5M839.5 908.5L816.5 885.5M770.5 333.5L793.5 310.5M770.5 494.5L770.5 471.5L770.5 448.5M770.5 356.5L793.5 333.5L816.5 310.5M770.5 517.5L793.5 494.5L793.5 471.5M862.5 1092.5L862.5 1069.5L862.5 1046.5L839.5 1023.5L839.5 1000.5L839.5 977.5L839.5 954.5L839.5 931.5L839.5 908.5L839.5 885.5L839.5 862.5L839.5 839.5L839.5 816.5L839.5 793.5L839.5 770.5L839.5 747.5L839.5 724.5L839.5 701.5L839.5 678.5L816.5 655.5L793.5 632.5L793.5 609.5L793.5 586.5L770.5 563.5L770.5 540.5L770.5 517.5L770.5 494.5L747.5 471.5L747.5 448.5L770.5 425.5L770.5 402.5L770.5 379.5L770.5 356.5L770.5 333.5L770.5 310.5" stroke="rgba(255, 179, 112, 1)" stroke-width="3.83"></path><path d="M764.75 310.5 a5.75 5.75 0 1 0 11.5 0 a5.75 5.75 0 1 0 -11.5 0zM741.75 241.5 a5.75 5.75 0 1 0 11.5 0 a5.75 5.75 0 1 0 -11.5 0zM810.75 862.5 a5.75 5.75 0 1 0 11.5 0 a5.75 5.75 0 1 0 -11.5 0zM810.75 770.5 a5.75 5.75 0 1 0 11.5 0 a5.75 5.75 0 1 0 -11.5 0zM810.75 885.5 a5.75 5.75 0 1 0 11.5 0 a5.75 5.75 0 1 0 -11.5 0zM787.75 310.5 a5.75 5.75 0 1 0 11.5 0 a5.75 5.75 0 1 0 -11.5 0zM764.75 448.5 a5.75 5.75 0 1 0 11.5 0 a5.75 5.75 0 1 0 -11.5 0zM810.75 310.5 a5.75 5.75 0 1 0 11.5 0 a5.75 5.75 0 1 0 -11.5 0zM787.75 471.5 a5.75 5.75 0 1 0 11.5 0 a5.75 5.75 0 1 0 -11.5 0z" fill="rgba(255, 179, 112, 1)"></path><path d="M1046.5 1092.5L1046.5 1069.5L1046.5 1046.5L1046.5 1023.5L1046.5 1000.5L1046.5 977.5L1046.5 954.5L1046.5 931.5L1046.5 908.5" stroke="rgba(14, 55, 79, 1)" stroke-width="3.83"></path><path d="M1040.75 908.5 a5.75 5.75 0 1 0 11.5 0 a5.75 5.75 0 1 0 -11.5 0z" fill="rgba(14, 55, 79, 1)"></path><path d="M793.5 793.5L770.5 770.5L770.5 747.5L770.5 724.5M793.5 816.5L816.5 793.5M793.5 770.5L793.5 747.5M816.5 701.5L793.5 678.5L770.5 655.5M793.5 839.5L816.5 816.5M816.5 931.5L816.5 908.5M839.5 1092.5L839.5 1069.5L839.5 1046.5L816.5 1023.5L816.5 1000.5L816.5 977.5L816.5 954.5L816.5 931.5L793.5 908.5L793.5 885.5L793.5 862.5L793.5 839.5L793.5 816.5L793.5 793.5L793.5 770.5L816.5 747.5L816.5 724.5L816.5 701.5L816.5 678.5L793.5 655.5L770.5 632.5L770.5 609.5L770.5 586.5L747.5 563.5L747.5 540.5L747.5 517.5" stroke="rgba(14, 55, 79, 1)" stroke-width="3.83"></path><path d="M741.75 517.5 a5.75 5.75 0 1 0 11.5 0 a5.75 5.75 0 1 0 -11.5 0zM764.75 724.5 a5.75 5.75 0 1 0 11.5 0 a5.75 5.75 0 1 0 -11.5 0zM810.75 793.5 a5.75 5.75 0 1 0 11.5 0 a5.75 5.75 0 1 0 -11.5 0zM787.75 747.5 a5.75 5.75 0 1 0 11.5 0 a5.75 5.75 0 1 0 -11.5 0zM764.75 655.5 a5.75 5.75 0 1 0 11.5 0 a5.75 5.75 0 1 0 -11.5 0zM810.75 816.5 a5.75 5.75 0 1 0 11.5 0 a5.75 5.75 0 1 0 -11.5 0zM810.75 908.5 a5.75 5.75 0 1 0 11.5 0 a5.75 5.75 0 1 0 -11.5 0z" fill="rgba(14, 55, 79, 1)"></path><path d="M1138.5 402.5L1161.5 379.5L1161.5 356.5L1161.5 333.5L1161.5 310.5M1046.5 816.5L1069.5 793.5M1046.5 862.5L1069.5 839.5L1069.5 816.5M1092.5 517.5L1115.5 494.5L1115.5 471.5L1138.5 448.5L1161.5 425.5L1161.5 402.5L1184.5 379.5M1138.5 425.5L1115.5 402.5L1092.5 379.5L1092.5 356.5L1092.5 333.5L1092.5 310.5L1092.5 287.5M1069.5 678.5L1069.5 655.5M1046.5 770.5L1069.5 747.5L1069.5 724.5M1138.5 379.5L1115.5 356.5L1115.5 333.5L1115.5 310.5M1069.5 1092.5L1069.5 1069.5L1069.5 1046.5L1069.5 1023.5L1069.5 1000.5L1069.5 977.5L1069.5 954.5L1069.5 931.5L1069.5 908.5L1069.5 885.5L1046.5 862.5L1046.5 839.5L1046.5 816.5L1046.5 793.5L1046.5 770.5L1046.5 747.5L1046.5 724.5L1069.5 701.5L1069.5 678.5L1092.5 655.5L1092.5 632.5L1092.5 609.5L1092.5 586.5L1092.5 563.5L1092.5 540.5L1092.5 517.5L1092.5 494.5L1092.5 471.5L1115.5 448.5L1138.5 425.5L1138.5 402.5L1138.5 379.5L1138.5 356.5L1138.5 333.5" stroke="rgba(56, 67, 88, 1)" stroke-width="3.83"></path><path d="M1132.75 333.5 a5.75 5.75 0 1 0 11.5 0 a5.75 5.75 0 1 0 -11.5 0zM1155.75 310.5 a5.75 5.75 0 1 0 11.5 0 a5.75 5.75 0 1 0 -11.5 0zM1063.75 793.5 a5.75 5.75 0 1 0 11.5 0 a5.75 5.75 0 1 0 -11.5 0zM1063.75 816.5 a5.75 5.75 0 1 0 11.5 0 a5.75 5.75 0 1 0 -11.5 0zM1178.75 379.5 a5.75 5.75 0 1 0 11.5 0 a5.75 5.75 0 1 0 -11.5 0zM1086.75 287.5 a5.75 5.75 0 1 0 11.5 0 a5.75 5.75 0 1 0 -11.5 0zM1063.75 655.5 a5.75 5.75 0 1 0 11.5 0 a5.75 5.75 0 1 0 -11.5 0zM1063.75 724.5 a5.75 5.75 0 1 0 11.5 0 a5.75 5.75 0 1 0 -11.5 0zM1109.75 310.5 a5.75 5.75 0 1 0 11.5 0 a5.75 5.75 0 1 0 -11.5 0z" fill="rgba(56, 67, 88, 1)"></path><path d="M770.5 885.5L747.5 862.5M747.5 839.5L770.5 816.5L770.5 793.5M816.5 1092.5L816.5 1069.5L816.5 1046.5L793.5 1023.5L793.5 1000.5L793.5 977.5L793.5 954.5L793.5 931.5L770.5 908.5L770.5 885.5L770.5 862.5L747.5 839.5L747.5 816.5L747.5 793.5L747.5 770.5L747.5 747.5L747.5 724.5" stroke="rgba(56, 67, 88, 1)" stroke-width="3.83"></path><path d="M741.75 724.5 a5.75 5.75 0 1 0 11.5 0 a5.75 5.75 0 1 0 -11.5 0zM741.75 862.5 a5.75 5.75 0 1 0 11.5 0 a5.75 5.75 0 1 0 -11.5 0zM764.75 793.5 a5.75 5.75 0 1 0 11.5 0 a5.75 5.75 0 1 0 -11.5 0z" fill="rgba(56, 67, 88, 1)"></path><path d="M1115.5 655.5L1138.5 632.5L1138.5 609.5L1138.5 586.5M1092.5 724.5L1115.5 701.5L1115.5 678.5L1138.5 655.5L1161.5 632.5M1092.5 839.5L1115.5 816.5L1115.5 793.5M1092.5 1092.5L1092.5 1069.5L1092.5 1046.5L1092.5 1023.5L1092.5 1000.5L1092.5 977.5L1092.5 954.5L1092.5 931.5L1092.5 908.5L1092.5 885.5L1092.5 862.5L1092.5 839.5L1092.5 816.5L1092.5 793.5L1092.5 770.5L1092.5 747.5L1092.5 724.5L1092.5 701.5L1092.5 678.5L1115.5 655.5L1115.5 632.5" stroke="rgba(56, 67, 88, 1)" stroke-width="3.83"></path><path d="M1109.75 632.5 a5.75 5.75 0 1 0 11.5 0 a5.75 5.75 0 1 0 -11.5 0zM1132.75 586.5 a5.75 5.75 0 1 0 11.5 0 a5.75 5.75 0 1 0 -11.5 0zM1155.75 632.5 a5.75 5.75 0 1 0 11.5 0 a5.75 5.75 0 1 0 -11.5 0zM1109.75 793.5 a5.75 5.75 0 1 0 11.5 0 a5.75 5.75 0 1 0 -11.5 0z" fill="rgba(56, 67, 88, 1)"></path><path d="M793.5 1092.5L793.5 1069.5L793.5 1046.5L770.5 1023.5L770.5 1000.5L770.5 977.5L770.5 954.5L770.5 931.5L747.5 908.5" stroke="rgba(14, 55, 79, 1)" stroke-width="3.83"></path><path d="M741.75 908.5 a5.75 5.75 0 1 0 11.5 0 a5.75 5.75 0 1 0 -11.5 0z" fill="rgba(14, 55, 79, 1)"></path><path d="M1138.5 793.5L1138.5 770.5L1138.5 747.5L1138.5 724.5L1138.5 701.5L1138.5 678.5M1115.5 1092.5L1115.5 1069.5L1115.5 1046.5L1115.5 1023.5L1115.5 1000.5L1115.5 977.5L1115.5 954.5L1115.5 931.5L1115.5 908.5L1115.5 885.5L1115.5 862.5L1138.5 839.5L1138.5 816.5L1138.5 793.5L1115.5 770.5L1115.5 747.5" stroke="rgba(14, 55, 79, 1)" stroke-width="3.83"></path><path d="M1109.75 747.5 a5.75 5.75 0 1 0 11.5 0 a5.75 5.75 0 1 0 -11.5 0zM1132.75 678.5 a5.75 5.75 0 1 0 11.5 0 a5.75 5.75 0 1 0 -11.5 0z" fill="rgba(14, 55, 79, 1)"></path><path d="M701.5 402.5L724.5 379.5L724.5 356.5L724.5 333.5L724.5 310.5M724.5 655.5L747.5 632.5L747.5 609.5L747.5 586.5M724.5 609.5L701.5 586.5L678.5 563.5L678.5 540.5L678.5 517.5L678.5 494.5L678.5 471.5L678.5 448.5L678.5 425.5M724.5 563.5L701.5 540.5L701.5 517.5L701.5 494.5L701.5 471.5L701.5 448.5M701.5 379.5L678.5 356.5L678.5 333.5L678.5 310.5L678.5 287.5M701.5 425.5L724.5 402.5M724.5 678.5L747.5 655.5M724.5 701.5L747.5 678.5M770.5 1092.5L770.5 1069.5L770.5 1046.5L747.5 1023.5L747.5 1000.5L747.5 977.5L747.5 954.5L747.5 931.5L724.5 908.5L724.5 885.5L724.5 862.5L724.5 839.5L724.5 816.5L724.5 793.5L724.5 770.5L724.5 747.5L724.5 724.5L724.5 701.5L724.5 678.5L724.5 655.5L724.5 632.5L724.5 609.5L724.5 586.5L724.5 563.5L724.5 540.5L724.5 517.5L724.5 494.5L724.5 471.5L724.5 448.5L701.5 425.5L701.5 402.5L701.5 379.5L701.5 356.5" stroke="rgba(56, 67, 88, 1)" stroke-width="3.83"></path><path d="M695.75 356.5 a5.75 5.75 0 1 0 11.5 0 a5.75 5.75 0 1 0 -11.5 0zM718.75 310.5 a5.75 5.75 0 1 0 11.5 0 a5.75 5.75 0 1 0 -11.5 0zM741.75 586.5 a5.75 5.75 0 1 0 11.5 0 a5.75 5.75 0 1 0 -11.5 0zM672.75 425.5 a5.75 5.75 0 1 0 11.5 0 a5.75 5.75 0 1 0 -11.5 0zM695.75 448.5 a5.75 5.75 0 1 0 11.5 0 a5.75 5.75 0 1 0 -11.5 0zM672.75 287.5 a5.75 5.75 0 1 0 11.5 0 a5.75 5.75 0 1 0 -11.5 0zM718.75 402.5 a5.75 5.75 0 1 0 11.5 0 a5.75 5.75 0 1 0 -11.5 0zM741.75 655.5 a5.75 5.75 0 1 0 11.5 0 a5.75 5.75 0 1 0 -11.5 0zM741.75 678.5 a5.75 5.75 0 1 0 11.5 0 a5.75 5.75 0 1 0 -11.5 0z" fill="rgba(56, 67, 88, 1)"></path><path d="M1184.5 747.5L1161.5 724.5L1161.5 701.5L1161.5 678.5M1184.5 563.5L1184.5 540.5L1184.5 517.5L1184.5 494.5L1184.5 471.5L1161.5 448.5M1207.5 379.5L1230.5 356.5L1230.5 333.5L1230.5 310.5L1230.5 287.5L1230.5 264.5L1230.5 241.5M1207.5 494.5L1230.5 471.5L1253.5 448.5L1253.5 425.5L1253.5 402.5M1184.5 609.5L1161.5 586.5L1161.5 563.5L1161.5 540.5L1161.5 517.5M1207.5 310.5L1184.5 287.5M1207.5 333.5L1184.5 310.5M1207.5 448.5L1184.5 425.5L1184.5 402.5M1161.5 770.5L1161.5 747.5M1138.5 1092.5L1138.5 1069.5L1138.5 1046.5L1138.5 1023.5L1138.5 1000.5L1138.5 977.5L1138.5 954.5L1138.5 931.5L1138.5 908.5L1138.5 885.5L1138.5 862.5L1161.5 839.5L1161.5 816.5L1161.5 793.5L1161.5 770.5L1184.5 747.5L1184.5 724.5L1184.5 701.5L1184.5 678.5L1184.5 655.5L1184.5 632.5L1184.5 609.5L1184.5 586.5L1184.5 563.5L1207.5 540.5L1207.5 517.5L1207.5 494.5L1207.5 471.5L1207.5 448.5L1207.5 425.5L1207.5 402.5L1207.5 379.5L1207.5 356.5L1207.5 333.5L1207.5 310.5L1207.5 287.5L1207.5 264.5" stroke="rgba(255, 179, 112, 1)" stroke-width="3.83"></path><path d="M1201.75 264.5 a5.75 5.75 0 1 0 11.5 0 a5.75 5.75 0 1 0 -11.5 0zM1155.75 678.5 a5.75 5.75 0 1 0 11.5 0 a5.75 5.75 0 1 0 -11.5 0zM1155.75 448.5 a5.75 5.75 0 1 0 11.5 0 a5.75 5.75 0 1 0 -11.5 0zM1224.75 241.5 a5.75 5.75 0 1 0 11.5 0 a5.75 5.75 0 1 0 -11.5 0zM1247.75 402.5 a5.75 5.75 0 1 0 11.5 0 a5.75 5.75 0 1 0 -11.5 0zM1155.75 517.5 a5.75 5.75 0 1 0 11.5 0 a5.75 5.75 0 1 0 -11.5 0zM1178.75 287.5 a5.75 5.75 0 1 0 11.5 0 a5.75 5.75 0 1 0 -11.5 0zM1178.75 310.5 a5.75 5.75 0 1 0 11.5 0 a5.75 5.75 0 1 0 -11.5 0zM1178.75 402.5 a5.75 5.75 0 1 0 11.5 0 a5.75 5.75 0 1 0 -11.5 0zM1155.75 747.5 a5.75 5.75 0 1 0 11.5 0 a5.75 5.75 0 1 0 -11.5 0z" fill="rgba(255, 179, 112, 1)"></path><path d="M701.5 701.5L678.5 678.5M701.5 655.5L678.5 632.5L678.5 609.5L678.5 586.5M701.5 816.5L678.5 793.5M701.5 862.5L678.5 839.5L678.5 816.5L655.5 793.5L655.5 770.5L655.5 747.5L655.5 724.5L655.5 701.5M747.5 1092.5L747.5 1069.5L747.5 1046.5L724.5 1023.5L724.5 1000.5L724.5 977.5L724.5 954.5L724.5 931.5L701.5 908.5L701.5 885.5L701.5 862.5L701.5 839.5L701.5 816.5L701.5 793.5L701.5 770.5L701.5 747.5L701.5 724.5L701.5 701.5L701.5 678.5L701.5 655.5L701.5 632.5" stroke="rgba(255, 179, 112, 1)" stroke-width="3.83"></path><path d="M695.75 632.5 a5.75 5.75 0 1 0 11.5 0 a5.75 5.75 0 1 0 -11.5 0zM672.75 678.5 a5.75 5.75 0 1 0 11.5 0 a5.75 5.75 0 1 0 -11.5 0zM672.75 586.5 a5.75 5.75 0 1 0 11.5 0 a5.75 5.75 0 1 0 -11.5 0zM672.75 793.5 a5.75 5.75 0 1 0 11.5 0 a5.75 5.75 0 1 0 -11.5 0zM649.75 701.5 a5.75 5.75 0 1 0 11.5 0 a5.75 5.75 0 1 0 -11.5 0z" fill="rgba(255, 179, 112, 1)"></path><path d="M1161.5 1046.5L1184.5 1023.5L1184.5 1000.5M1184.5 793.5L1207.5 770.5M1161.5 931.5L1184.5 908.5M1161.5 1069.5L1184.5 1046.5M1161.5 1092.5L1161.5 1069.5L1161.5 1046.5L1161.5 1023.5L1161.5 1000.5L1161.5 977.5L1161.5 954.5L1161.5 931.5L1161.5 908.5L1161.5 885.5L1161.5 862.5L1184.5 839.5L1184.5 816.5L1184.5 793.5L1184.5 770.5L1207.5 747.5" stroke="rgba(14, 55, 79, 1)" stroke-width="3.83"></path><path d="M1201.75 747.5 a5.75 5.75 0 1 0 11.5 0 a5.75 5.75 0 1 0 -11.5 0zM1178.75 1000.5 a5.75 5.75 0 1 0 11.5 0 a5.75 5.75 0 1 0 -11.5 0zM1201.75 770.5 a5.75 5.75 0 1 0 11.5 0 a5.75 5.75 0 1 0 -11.5 0zM1178.75 908.5 a5.75 5.75 0 1 0 11.5 0 a5.75 5.75 0 1 0 -11.5 0zM1178.75 1046.5 a5.75 5.75 0 1 0 11.5 0 a5.75 5.75 0 1 0 -11.5 0z" fill="rgba(14, 55, 79, 1)"></path><path d="M724.5 1092.5L724.5 1069.5L724.5 1046.5L701.5 1023.5L701.5 1000.5L701.5 977.5L701.5 954.5L701.5 931.5L678.5 908.5" stroke="rgba(255, 179, 112, 1)" stroke-width="3.83"></path><path d="M672.75 908.5 a5.75 5.75 0 1 0 11.5 0 a5.75 5.75 0 1 0 -11.5 0z" fill="rgba(255, 179, 112, 1)"></path><path d="M1207.5 701.5L1230.5 678.5M1230.5 885.5L1230.5 862.5L1230.5 839.5L1253.5 816.5M1207.5 724.5L1230.5 701.5L1253.5 678.5L1253.5 655.5M1230.5 747.5L1230.5 724.5M1230.5 908.5L1253.5 885.5L1253.5 862.5L1253.5 839.5M1207.5 839.5L1207.5 816.5L1207.5 793.5M1184.5 1092.5L1207.5 1069.5L1207.5 1046.5L1207.5 1023.5L1207.5 1000.5L1207.5 977.5L1230.5 954.5L1230.5 931.5L1230.5 908.5L1230.5 885.5L1207.5 862.5L1207.5 839.5L1230.5 816.5L1230.5 793.5L1230.5 770.5L1230.5 747.5L1207.5 724.5L1207.5 701.5L1207.5 678.5L1207.5 655.5L1207.5 632.5L1207.5 609.5L1207.5 586.5L1207.5 563.5L1230.5 540.5L1230.5 517.5" stroke="rgba(56, 67, 88, 1)" stroke-width="3.83"></path><path d="M1224.75 517.5 a5.75 5.75 0 1 0 11.5 0 a5.75 5.75 0 1 0 -11.5 0zM1224.75 678.5 a5.75 5.75 0 1 0 11.5 0 a5.75 5.75 0 1 0 -11.5 0zM1247.75 816.5 a5.75 5.75 0 1 0 11.5 0 a5.75 5.75 0 1 0 -11.5 0zM1247.75 655.5 a5.75 5.75 0 1 0 11.5 0 a5.75 5.75 0 1 0 -11.5 0zM1224.75 724.5 a5.75 5.75 0 1 0 11.5 0 a5.75 5.75 0 1 0 -11.5 0zM1247.75 839.5 a5.75 5.75 0 1 0 11.5 0 a5.75 5.75 0 1 0 -11.5 0zM1201.75 793.5 a5.75 5.75 0 1 0 11.5 0 a5.75 5.75 0 1 0 -11.5 0z" fill="rgba(56, 67, 88, 1)"></path><path d="M678.5 954.5L655.5 931.5M678.5 1023.5L655.5 1000.5L655.5 977.5M655.5 471.5L632.5 448.5L632.5 425.5L632.5 402.5L632.5 379.5L632.5 356.5L632.5 333.5L632.5 310.5L632.5 287.5M655.5 402.5L678.5 379.5M655.5 494.5L632.5 471.5L609.5 448.5L609.5 425.5L609.5 402.5L586.5 379.5L586.5 356.5L586.5 333.5L586.5 310.5M655.5 862.5L655.5 839.5M655.5 885.5L678.5 862.5M701.5 1092.5L701.5 1069.5L701.5 1046.5L678.5 1023.5L678.5 1000.5L678.5 977.5L678.5 954.5L678.5 931.5L655.5 908.5L655.5 885.5L655.5 862.5L632.5 839.5L632.5 816.5L632.5 793.5L632.5 770.5L632.5 747.5L632.5 724.5L632.5 701.5L632.5 678.5L655.5 655.5L655.5 632.5L655.5 609.5L655.5 586.5L655.5 563.5L655.5 540.5L655.5 517.5L655.5 494.5L655.5 471.5L655.5 448.5L655.5 425.5L655.5 402.5L655.5 379.5" stroke="rgba(255, 179, 112, 1)" stroke-width="3.83"></path><path d="M649.75 379.5 a5.75 5.75 0 1 0 11.5 0 a5.75 5.75 0 1 0 -11.5 0zM649.75 931.5 a5.75 5.75 0 1 0 11.5 0 a5.75 5.75 0 1 0 -11.5 0zM649.75 977.5 a5.75 5.75 0 1 0 11.5 0 a5.75 5.75 0 1 0 -11.5 0zM626.75 287.5 a5.75 5.75 0 1 0 11.5 0 a5.75 5.75 0 1 0 -11.5 0zM672.75 379.5 a5.75 5.75 0 1 0 11.5 0 a5.75 5.75 0 1 0 -11.5 0zM580.75 310.5 a5.75 5.75 0 1 0 11.5 0 a5.75 5.75 0 1 0 -11.5 0zM649.75 839.5 a5.75 5.75 0 1 0 11.5 0 a5.75 5.75 0 1 0 -11.5 0zM672.75 862.5 a5.75 5.75 0 1 0 11.5 0 a5.75 5.75 0 1 0 -11.5 0z" fill="rgba(255, 179, 112, 1)"></path><path d="M678.5 1069.5L655.5 1046.5M678.5 1092.5L678.5 1069.5L678.5 1046.5" stroke="rgba(14, 55, 79, 1)" stroke-width="3.83"></path><path d="M672.75 1046.5 a5.75 5.75 0 1 0 11.5 0 a5.75 5.75 0 1 0 -11.5 0zM649.75 1046.5 a5.75 5.75 0 1 0 11.5 0 a5.75 5.75 0 1 0 -11.5 0z" fill="rgba(14, 55, 79, 1)"></path><path d="M1253.5 931.5L1253.5 908.5M1253.5 333.5L1276.5 310.5L1276.5 287.5L1276.5 264.5L1276.5 241.5M1276.5 793.5L1276.5 770.5L1276.5 747.5L1299.5 724.5L1299.5 701.5L1299.5 678.5L1299.5 655.5M1253.5 356.5L1276.5 333.5L1299.5 310.5L1299.5 287.5L1299.5 264.5L1299.5 241.5M1276.5 540.5L1299.5 517.5L1299.5 494.5L1299.5 471.5L1299.5 448.5L1299.5 425.5L1299.5 402.5L1276.5 379.5L1276.5 356.5L1299.5 333.5M1253.5 747.5L1253.5 724.5L1253.5 701.5M1276.5 563.5L1299.5 540.5M1276.5 517.5L1253.5 494.5M1276.5 632.5L1299.5 609.5L1299.5 586.5L1299.5 563.5L1322.5 540.5M1230.5 1092.5L1230.5 1069.5L1230.5 1046.5L1230.5 1023.5L1230.5 1000.5L1230.5 977.5L1253.5 954.5L1253.5 931.5L1276.5 908.5L1276.5 885.5L1276.5 862.5L1276.5 839.5L1276.5 816.5L1276.5 793.5L1253.5 770.5L1253.5 747.5L1276.5 724.5L1276.5 701.5L1276.5 678.5L1276.5 655.5L1276.5 632.5L1276.5 609.5L1276.5 586.5L1276.5 563.5L1276.5 540.5L1276.5 517.5L1276.5 494.5L1276.5 471.5L1276.5 448.5L1276.5 425.5L1276.5 402.5L1253.5 379.5L1253.5 356.5L1253.5 333.5L1253.5 310.5L1253.5 287.5" stroke="rgba(255, 179, 112, 1)" stroke-width="3.83"></path><path d="M1247.75 287.5 a5.75 5.75 0 1 0 11.5 0 a5.75 5.75 0 1 0 -11.5 0zM1247.75 908.5 a5.75 5.75 0 1 0 11.5 0 a5.75 5.75 0 1 0 -11.5 0zM1270.75 241.5 a5.75 5.75 0 1 0 11.5 0 a5.75 5.75 0 1 0 -11.5 0zM1293.75 655.5 a5.75 5.75 0 1 0 11.5 0 a5.75 5.75 0 1 0 -11.5 0zM1293.75 241.5 a5.75 5.75 0 1 0 11.5 0 a5.75 5.75 0 1 0 -11.5 0zM1293.75 333.5 a5.75 5.75 0 1 0 11.5 0 a5.75 5.75 0 1 0 -11.5 0zM1247.75 701.5 a5.75 5.75 0 1 0 11.5 0 a5.75 5.75 0 1 0 -11.5 0zM1293.75 540.5 a5.75 5.75 0 1 0 11.5 0 a5.75 5.75 0 1 0 -11.5 0zM1247.75 494.5 a5.75 5.75 0 1 0 11.5 0 a5.75 5.75 0 1 0 -11.5 0zM1316.75 540.5 a5.75 5.75 0 1 0 11.5 0 a5.75 5.75 0 1 0 -11.5 0z" fill="rgba(255, 179, 112, 1)"></path><path d="M632.5 885.5L609.5 862.5M632.5 954.5L609.5 931.5L609.5 908.5L609.5 885.5M632.5 655.5L609.5 632.5L609.5 609.5L609.5 586.5M609.5 678.5L609.5 655.5L586.5 632.5L586.5 609.5L586.5 586.5L586.5 563.5L586.5 540.5L586.5 517.5L586.5 494.5M609.5 701.5L586.5 678.5L586.5 655.5L563.5 632.5L563.5 609.5L563.5 586.5L563.5 563.5L563.5 540.5L563.5 517.5M632.5 563.5L609.5 540.5L609.5 517.5L609.5 494.5L586.5 471.5L586.5 448.5L586.5 425.5M655.5 1092.5L632.5 1069.5L632.5 1046.5L632.5 1023.5L632.5 1000.5L632.5 977.5L632.5 954.5L632.5 931.5L632.5 908.5L632.5 885.5L632.5 862.5L609.5 839.5L609.5 816.5L609.5 793.5L609.5 770.5L609.5 747.5L609.5 724.5L609.5 701.5L609.5 678.5L632.5 655.5L632.5 632.5L632.5 609.5L632.5 586.5L632.5 563.5L632.5 540.5L632.5 517.5" stroke="rgba(56, 67, 88, 1)" stroke-width="3.83"></path><path d="M626.75 517.5 a5.75 5.75 0 1 0 11.5 0 a5.75 5.75 0 1 0 -11.5 0zM603.75 862.5 a5.75 5.75 0 1 0 11.5 0 a5.75 5.75 0 1 0 -11.5 0zM603.75 885.5 a5.75 5.75 0 1 0 11.5 0 a5.75 5.75 0 1 0 -11.5 0zM603.75 586.5 a5.75 5.75 0 1 0 11.5 0 a5.75 5.75 0 1 0 -11.5 0zM580.75 494.5 a5.75 5.75 0 1 0 11.5 0 a5.75 5.75 0 1 0 -11.5 0zM557.75 517.5 a5.75 5.75 0 1 0 11.5 0 a5.75 5.75 0 1 0 -11.5 0zM580.75 425.5 a5.75 5.75 0 1 0 11.5 0 a5.75 5.75 0 1 0 -11.5 0z" fill="rgba(56, 67, 88, 1)"></path><path d="M1345.5 517.5L1322.5 494.5L1322.5 471.5L1322.5 448.5L1322.5 425.5L1322.5 402.5L1322.5 379.5M1276.5 1000.5L1253.5 977.5M1276.5 954.5L1299.5 931.5M1322.5 770.5L1299.5 747.5M1322.5 793.5L1299.5 770.5M1253.5 1046.5L1253.5 1023.5L1253.5 1000.5M1345.5 586.5L1322.5 563.5M1299.5 816.5L1299.5 793.5M1253.5 1092.5L1253.5 1069.5L1253.5 1046.5L1276.5 1023.5L1276.5 1000.5L1276.5 977.5L1276.5 954.5L1276.5 931.5L1299.5 908.5L1299.5 885.5L1299.5 862.5L1299.5 839.5L1299.5 816.5L1322.5 793.5L1322.5 770.5L1322.5 747.5L1322.5 724.5L1322.5 701.5L1322.5 678.5L1345.5 655.5L1345.5 632.5L1345.5 609.5L1345.5 586.5L1345.5 563.5L1345.5 540.5L1345.5 517.5L1345.5 494.5L1345.5 471.5L1345.5 448.5L1345.5 425.5L1345.5 402.5L1345.5 379.5" stroke="rgba(56, 67, 88, 1)" stroke-width="3.83"></path><path d="M1339.75 379.5 a5.75 5.75 0 1 0 11.5 0 a5.75 5.75 0 1 0 -11.5 0zM1316.75 379.5 a5.75 5.75 0 1 0 11.5 0 a5.75 5.75 0 1 0 -11.5 0zM1247.75 977.5 a5.75 5.75 0 1 0 11.5 0 a5.75 5.75 0 1 0 -11.5 0zM1293.75 931.5 a5.75 5.75 0 1 0 11.5 0 a5.75 5.75 0 1 0 -11.5 0zM1293.75 747.5 a5.75 5.75 0 1 0 11.5 0 a5.75 5.75 0 1 0 -11.5 0zM1293.75 770.5 a5.75 5.75 0 1 0 11.5 0 a5.75 5.75 0 1 0 -11.5 0zM1247.75 1000.5 a5.75 5.75 0 1 0 11.5 0 a5.75 5.75 0 1 0 -11.5 0zM1316.75 563.5 a5.75 5.75 0 1 0 11.5 0 a5.75 5.75 0 1 0 -11.5 0zM1293.75 793.5 a5.75 5.75 0 1 0 11.5 0 a5.75 5.75 0 1 0 -11.5 0z" fill="rgba(56, 67, 88, 1)"></path><path d="M1368.5 425.5L1391.5 402.5L1391.5 379.5L1368.5 356.5L1368.5 333.5M1368.5 540.5L1391.5 517.5L1391.5 494.5L1391.5 471.5L1414.5 448.5L1414.5 425.5M1368.5 609.5L1391.5 586.5L1391.5 563.5L1391.5 540.5L1414.5 517.5M1368.5 632.5L1391.5 609.5L1414.5 586.5L1414.5 563.5L1414.5 540.5M1368.5 448.5L1391.5 425.5M1345.5 310.5L1322.5 287.5L1322.5 264.5L1322.5 241.5M1345.5 356.5L1322.5 333.5L1322.5 310.5M1345.5 287.5L1368.5 264.5L1391.5 241.5M1322.5 839.5L1345.5 816.5M1276.5 1092.5L1276.5 1069.5L1276.5 1046.5L1299.5 1023.5L1299.5 1000.5L1299.5 977.5L1322.5 954.5L1322.5 931.5L1322.5 908.5L1322.5 885.5L1322.5 862.5L1322.5 839.5L1322.5 816.5L1345.5 793.5L1345.5 770.5L1345.5 747.5L1345.5 724.5L1345.5 701.5L1345.5 678.5L1368.5 655.5L1368.5 632.5L1368.5 609.5L1368.5 586.5L1368.5 563.5L1368.5 540.5L1368.5 517.5L1368.5 494.5L1368.5 471.5L1368.5 448.5L1368.5 425.5L1368.5 402.5L1368.5 379.5L1345.5 356.5L1345.5 333.5L1345.5 310.5L1345.5 287.5L1345.5 264.5L1345.5 241.5" stroke="rgba(14, 55, 79, 1)" stroke-width="3.83"></path><path d="M1339.75 241.5 a5.75 5.75 0 1 0 11.5 0 a5.75 5.75 0 1 0 -11.5 0zM1362.75 333.5 a5.75 5.75 0 1 0 11.5 0 a5.75 5.75 0 1 0 -11.5 0zM1408.75 425.5 a5.75 5.75 0 1 0 11.5 0 a5.75 5.75 0 1 0 -11.5 0zM1408.75 517.5 a5.75 5.75 0 1 0 11.5 0 a5.75 5.75 0 1 0 -11.5 0zM1408.75 540.5 a5.75 5.75 0 1 0 11.5 0 a5.75 5.75 0 1 0 -11.5 0zM1385.75 425.5 a5.75 5.75 0 1 0 11.5 0 a5.75 5.75 0 1 0 -11.5 0zM1316.75 241.5 a5.75 5.75 0 1 0 11.5 0 a5.75 5.75 0 1 0 -11.5 0zM1316.75 310.5 a5.75 5.75 0 1 0 11.5 0 a5.75 5.75 0 1 0 -11.5 0zM1385.75 241.5 a5.75 5.75 0 1 0 11.5 0 a5.75 5.75 0 1 0 -11.5 0zM1339.75 816.5 a5.75 5.75 0 1 0 11.5 0 a5.75 5.75 0 1 0 -11.5 0z" fill="rgba(14, 55, 79, 1)"></path><path d="M586.5 747.5L586.5 724.5L586.5 701.5L563.5 678.5L563.5 655.5M586.5 770.5L563.5 747.5M563.5 724.5L563.5 701.5M609.5 1092.5L609.5 1069.5L609.5 1046.5L609.5 1023.5L609.5 1000.5L609.5 977.5L586.5 954.5L586.5 931.5L586.5 908.5L586.5 885.5L586.5 862.5L586.5 839.5L586.5 816.5L586.5 793.5L586.5 770.5L586.5 747.5L563.5 724.5L540.5 701.5L540.5 678.5L540.5 655.5L540.5 632.5L540.5 609.5L540.5 586.5L540.5 563.5" stroke="rgba(56, 67, 88, 1)" stroke-width="3.83"></path><path d="M534.75 563.5 a5.75 5.75 0 1 0 11.5 0 a5.75 5.75 0 1 0 -11.5 0zM557.75 655.5 a5.75 5.75 0 1 0 11.5 0 a5.75 5.75 0 1 0 -11.5 0zM557.75 747.5 a5.75 5.75 0 1 0 11.5 0 a5.75 5.75 0 1 0 -11.5 0zM557.75 701.5 a5.75 5.75 0 1 0 11.5 0 a5.75 5.75 0 1 0 -11.5 0z" fill="rgba(56, 67, 88, 1)"></path><path d="M1345.5 862.5L1345.5 839.5M1299.5 1092.5L1299.5 1069.5L1299.5 1046.5L1322.5 1023.5L1322.5 1000.5L1322.5 977.5L1345.5 954.5L1345.5 931.5L1345.5 908.5L1345.5 885.5L1345.5 862.5L1368.5 839.5L1368.5 816.5L1368.5 793.5" stroke="rgba(14, 55, 79, 1)" stroke-width="3.83"></path><path d="M1362.75 793.5 a5.75 5.75 0 1 0 11.5 0 a5.75 5.75 0 1 0 -11.5 0zM1339.75 839.5 a5.75 5.75 0 1 0 11.5 0 a5.75 5.75 0 1 0 -11.5 0z" fill="rgba(14, 55, 79, 1)"></path><path d="M563.5 908.5L540.5 885.5L540.5 862.5L540.5 839.5L540.5 816.5M494.5 494.5L517.5 471.5L517.5 448.5L517.5 425.5L517.5 402.5M563.5 931.5L540.5 908.5M563.5 954.5L540.5 931.5M540.5 770.5L517.5 747.5L517.5 724.5M586.5 1046.5L563.5 1023.5L563.5 1000.5L540.5 977.5L540.5 954.5M563.5 816.5L563.5 793.5M586.5 1092.5L586.5 1069.5L586.5 1046.5L586.5 1023.5L586.5 1000.5L586.5 977.5L563.5 954.5L563.5 931.5L563.5 908.5L563.5 885.5L563.5 862.5L563.5 839.5L563.5 816.5L540.5 793.5L540.5 770.5L540.5 747.5L540.5 724.5L517.5 701.5L517.5 678.5L517.5 655.5L517.5 632.5L517.5 609.5L517.5 586.5L517.5 563.5L517.5 540.5L494.5 517.5L494.5 494.5L494.5 471.5L494.5 448.5" stroke="rgba(14, 55, 79, 1)" stroke-width="3.83"></path><path d="M488.75 448.5 a5.75 5.75 0 1 0 11.5 0 a5.75 5.75 0 1 0 -11.5 0zM534.75 816.5 a5.75 5.75 0 1 0 11.5 0 a5.75 5.75 0 1 0 -11.5 0zM511.75 402.5 a5.75 5.75 0 1 0 11.5 0 a5.75 5.75 0 1 0 -11.5 0zM534.75 908.5 a5.75 5.75 0 1 0 11.5 0 a5.75 5.75 0 1 0 -11.5 0zM534.75 931.5 a5.75 5.75 0 1 0 11.5 0 a5.75 5.75 0 1 0 -11.5 0zM511.75 724.5 a5.75 5.75 0 1 0 11.5 0 a5.75 5.75 0 1 0 -11.5 0zM534.75 954.5 a5.75 5.75 0 1 0 11.5 0 a5.75 5.75 0 1 0 -11.5 0zM557.75 793.5 a5.75 5.75 0 1 0 11.5 0 a5.75 5.75 0 1 0 -11.5 0z" fill="rgba(14, 55, 79, 1)"></path><path d="M1414.5 724.5L1414.5 701.5L1414.5 678.5L1391.5 655.5L1391.5 632.5M1437.5 701.5L1460.5 678.5L1460.5 655.5M1414.5 747.5L1391.5 724.5L1391.5 701.5M1437.5 678.5L1437.5 655.5L1437.5 632.5L1460.5 609.5L1483.5 586.5L1483.5 563.5M1391.5 816.5L1414.5 793.5M1322.5 1092.5L1322.5 1069.5L1322.5 1046.5L1345.5 1023.5L1345.5 1000.5L1345.5 977.5L1368.5 954.5L1368.5 931.5L1368.5 908.5L1368.5 885.5L1368.5 862.5L1391.5 839.5L1391.5 816.5L1391.5 793.5L1414.5 770.5L1414.5 747.5L1414.5 724.5L1437.5 701.5L1437.5 678.5L1414.5 655.5L1414.5 632.5L1437.5 609.5" stroke="rgba(56, 67, 88, 1)" stroke-width="3.83"></path><path d="M1431.75 609.5 a5.75 5.75 0 1 0 11.5 0 a5.75 5.75 0 1 0 -11.5 0zM1385.75 632.5 a5.75 5.75 0 1 0 11.5 0 a5.75 5.75 0 1 0 -11.5 0zM1454.75 655.5 a5.75 5.75 0 1 0 11.5 0 a5.75 5.75 0 1 0 -11.5 0zM1385.75 701.5 a5.75 5.75 0 1 0 11.5 0 a5.75 5.75 0 1 0 -11.5 0zM1477.75 563.5 a5.75 5.75 0 1 0 11.5 0 a5.75 5.75 0 1 0 -11.5 0zM1408.75 793.5 a5.75 5.75 0 1 0 11.5 0 a5.75 5.75 0 1 0 -11.5 0z" fill="rgba(56, 67, 88, 1)"></path><path d="M494.5 793.5L471.5 770.5L471.5 747.5M494.5 609.5L471.5 586.5L471.5 563.5L471.5 540.5L448.5 517.5L448.5 494.5L448.5 471.5M494.5 632.5L471.5 609.5L448.5 586.5L448.5 563.5L448.5 540.5M471.5 701.5L494.5 678.5M471.5 678.5L448.5 655.5M540.5 1069.5L563.5 1046.5M494.5 816.5L517.5 793.5L517.5 770.5M540.5 1046.5L540.5 1023.5L540.5 1000.5M563.5 1092.5L540.5 1069.5L540.5 1046.5L517.5 1023.5L517.5 1000.5L517.5 977.5L517.5 954.5L517.5 931.5L517.5 908.5L517.5 885.5L517.5 862.5L517.5 839.5L494.5 816.5L494.5 793.5L494.5 770.5L494.5 747.5L494.5 724.5L471.5 701.5L471.5 678.5L494.5 655.5L494.5 632.5L494.5 609.5L494.5 586.5L494.5 563.5L494.5 540.5L471.5 517.5L471.5 494.5L471.5 471.5L471.5 448.5L471.5 425.5L471.5 402.5L471.5 379.5" stroke="rgba(255, 179, 112, 1)" stroke-width="3.83"></path><path d="M465.75 379.5 a5.75 5.75 0 1 0 11.5 0 a5.75 5.75 0 1 0 -11.5 0zM465.75 747.5 a5.75 5.75 0 1 0 11.5 0 a5.75 5.75 0 1 0 -11.5 0zM442.75 471.5 a5.75 5.75 0 1 0 11.5 0 a5.75 5.75 0 1 0 -11.5 0zM442.75 540.5 a5.75 5.75 0 1 0 11.5 0 a5.75 5.75 0 1 0 -11.5 0zM488.75 678.5 a5.75 5.75 0 1 0 11.5 0 a5.75 5.75 0 1 0 -11.5 0zM442.75 655.5 a5.75 5.75 0 1 0 11.5 0 a5.75 5.75 0 1 0 -11.5 0zM557.75 1046.5 a5.75 5.75 0 1 0 11.5 0 a5.75 5.75 0 1 0 -11.5 0zM511.75 770.5 a5.75 5.75 0 1 0 11.5 0 a5.75 5.75 0 1 0 -11.5 0zM534.75 1000.5 a5.75 5.75 0 1 0 11.5 0 a5.75 5.75 0 1 0 -11.5 0z" fill="rgba(255, 179, 112, 1)"></path><path d="M1391.5 885.5L1414.5 862.5M1345.5 1092.5L1345.5 1069.5L1345.5 1046.5L1368.5 1023.5L1368.5 1000.5L1368.5 977.5L1391.5 954.5L1391.5 931.5L1391.5 908.5L1391.5 885.5L1391.5 862.5L1414.5 839.5" stroke="rgba(56, 67, 88, 1)" stroke-width="3.83"></path><path d="M1408.75 839.5 a5.75 5.75 0 1 0 11.5 0 a5.75 5.75 0 1 0 -11.5 0zM1408.75 862.5 a5.75 5.75 0 1 0 11.5 0 a5.75 5.75 0 1 0 -11.5 0z" fill="rgba(56, 67, 88, 1)"></path><path d="M1391.5 1000.5L1414.5 977.5L1437.5 954.5L1437.5 931.5L1460.5 908.5M1437.5 839.5L1460.5 816.5L1460.5 793.5L1460.5 770.5M1414.5 931.5L1414.5 908.5L1414.5 885.5M1391.5 1023.5L1414.5 1000.5L1437.5 977.5L1460.5 954.5M1368.5 1092.5L1368.5 1069.5L1368.5 1046.5L1391.5 1023.5L1391.5 1000.5L1391.5 977.5L1414.5 954.5L1414.5 931.5L1437.5 908.5L1437.5 885.5L1437.5 862.5L1437.5 839.5L1437.5 816.5L1437.5 793.5L1437.5 770.5L1437.5 747.5" stroke="rgba(56, 67, 88, 1)" stroke-width="3.83"></path><path d="M1431.75 747.5 a5.75 5.75 0 1 0 11.5 0 a5.75 5.75 0 1 0 -11.5 0zM1454.75 908.5 a5.75 5.75 0 1 0 11.5 0 a5.75 5.75 0 1 0 -11.5 0zM1454.75 770.5 a5.75 5.75 0 1 0 11.5 0 a5.75 5.75 0 1 0 -11.5 0zM1408.75 885.5 a5.75 5.75 0 1 0 11.5 0 a5.75 5.75 0 1 0 -11.5 0zM1454.75 954.5 a5.75 5.75 0 1 0 11.5 0 a5.75 5.75 0 1 0 -11.5 0z" fill="rgba(56, 67, 88, 1)"></path><path d="M425.5 379.5L448.5 356.5L448.5 333.5L448.5 310.5L448.5 287.5M425.5 448.5L448.5 425.5L448.5 402.5L448.5 379.5M471.5 816.5L471.5 793.5M425.5 724.5L448.5 701.5L448.5 678.5M517.5 1092.5L517.5 1069.5L517.5 1046.5L494.5 1023.5L494.5 1000.5L494.5 977.5L494.5 954.5L494.5 931.5L494.5 908.5L494.5 885.5L494.5 862.5L494.5 839.5L471.5 816.5L448.5 793.5L448.5 770.5L448.5 747.5L425.5 724.5L425.5 701.5L425.5 678.5L425.5 655.5L425.5 632.5L425.5 609.5L425.5 586.5L425.5 563.5L425.5 540.5L425.5 517.5L425.5 494.5L425.5 471.5L425.5 448.5L425.5 425.5L425.5 402.5L425.5 379.5L425.5 356.5L425.5 333.5L425.5 310.5L425.5 287.5L425.5 264.5" stroke="rgba(56, 67, 88, 1)" stroke-width="3.83"></path><path d="M419.75 264.5 a5.75 5.75 0 1 0 11.5 0 a5.75 5.75 0 1 0 -11.5 0zM442.75 287.5 a5.75 5.75 0 1 0 11.5 0 a5.75 5.75 0 1 0 -11.5 0zM442.75 379.5 a5.75 5.75 0 1 0 11.5 0 a5.75 5.75 0 1 0 -11.5 0zM465.75 793.5 a5.75 5.75 0 1 0 11.5 0 a5.75 5.75 0 1 0 -11.5 0zM442.75 678.5 a5.75 5.75 0 1 0 11.5 0 a5.75 5.75 0 1 0 -11.5 0z" fill="rgba(56, 67, 88, 1)"></path><path d="M1391.5 1092.5L1391.5 1069.5L1391.5 1046.5" stroke="rgba(56, 67, 88, 1)" stroke-width="3.83"></path><path d="M1385.75 1046.5 a5.75 5.75 0 1 0 11.5 0 a5.75 5.75 0 1 0 -11.5 0z" fill="rgba(56, 67, 88, 1)"></path><path d="M471.5 908.5L448.5 885.5L448.5 862.5L448.5 839.5L425.5 816.5M425.5 770.5L402.5 747.5L379.5 724.5L379.5 701.5L379.5 678.5M402.5 494.5L379.5 471.5L379.5 448.5L379.5 425.5L379.5 402.5L379.5 379.5M402.5 517.5L379.5 494.5L356.5 471.5L356.5 448.5L356.5 425.5L356.5 402.5L356.5 379.5L356.5 356.5L356.5 333.5L356.5 310.5L356.5 287.5L356.5 264.5M402.5 540.5L379.5 517.5L356.5 494.5L333.5 471.5M402.5 333.5L379.5 310.5L379.5 287.5M402.5 264.5L379.5 241.5M425.5 793.5L402.5 770.5L379.5 747.5L356.5 724.5M402.5 586.5L379.5 563.5L379.5 540.5M494.5 1092.5L494.5 1069.5L494.5 1046.5L471.5 1023.5L471.5 1000.5L471.5 977.5L471.5 954.5L471.5 931.5L471.5 908.5L471.5 885.5L471.5 862.5L471.5 839.5L448.5 816.5L425.5 793.5L425.5 770.5L425.5 747.5L402.5 724.5L402.5 701.5L402.5 678.5L402.5 655.5L402.5 632.5L402.5 609.5L402.5 586.5L402.5 563.5L402.5 540.5L402.5 517.5L402.5 494.5L402.5 471.5L402.5 448.5L402.5 425.5L402.5 402.5L402.5 379.5L402.5 356.5L402.5 333.5L402.5 310.5L402.5 287.5L402.5 264.5L402.5 241.5" stroke="rgba(56, 67, 88, 1)" stroke-width="3.83"></path><path d="M396.75 241.5 a5.75 5.75 0 1 0 11.5 0 a5.75 5.75 0 1 0 -11.5 0zM419.75 816.5 a5.75 5.75 0 1 0 11.5 0 a5.75 5.75 0 1 0 -11.5 0zM373.75 678.5 a5.75 5.75 0 1 0 11.5 0 a5.75 5.75 0 1 0 -11.5 0zM373.75 379.5 a5.75 5.75 0 1 0 11.5 0 a5.75 5.75 0 1 0 -11.5 0zM350.75 264.5 a5.75 5.75 0 1 0 11.5 0 a5.75 5.75 0 1 0 -11.5 0zM327.75 471.5 a5.75 5.75 0 1 0 11.5 0 a5.75 5.75 0 1 0 -11.5 0zM373.75 287.5 a5.75 5.75 0 1 0 11.5 0 a5.75 5.75 0 1 0 -11.5 0zM373.75 241.5 a5.75 5.75 0 1 0 11.5 0 a5.75 5.75 0 1 0 -11.5 0zM350.75 724.5 a5.75 5.75 0 1 0 11.5 0 a5.75 5.75 0 1 0 -11.5 0zM373.75 540.5 a5.75 5.75 0 1 0 11.5 0 a5.75 5.75 0 1 0 -11.5 0z" fill="rgba(56, 67, 88, 1)"></path></g></g><defs><mask id="SvgjsMask1190"><rect width="1900" height="1080" fill="#ffffff"></rect></mask><mask id="SvgjsMask1191"><rect width="1900" height="1080" fill="white"></rect><path d="M928.62 310.5 a2.88 2.88 0 1 0 5.76 0 a2.88 2.88 0 1 0 -5.76 0zM905.62 379.5 a2.88 2.88 0 1 0 5.76 0 a2.88 2.88 0 1 0 -5.76 0zM928.62 954.5 a2.88 2.88 0 1 0 5.76 0 a2.88 2.88 0 1 0 -5.76 0zM905.62 724.5 a2.88 2.88 0 1 0 5.76 0 a2.88 2.88 0 1 0 -5.76 0zM905.62 678.5 a2.88 2.88 0 1 0 5.76 0 a2.88 2.88 0 1 0 -5.76 0zM905.62 241.5 a2.88 2.88 0 1 0 5.76 0 a2.88 2.88 0 1 0 -5.76 0zM905.62 701.5 a2.88 2.88 0 1 0 5.76 0 a2.88 2.88 0 1 0 -5.76 0zM905.62 586.5 a2.88 2.88 0 1 0 5.76 0 a2.88 2.88 0 1 0 -5.76 0zM882.62 310.5 a2.88 2.88 0 1 0 5.76 0 a2.88 2.88 0 1 0 -5.76 0z" fill="black"></path><path d="M905.62 908.5 a2.88 2.88 0 1 0 5.76 0 a2.88 2.88 0 1 0 -5.76 0zM928.62 977.5 a2.88 2.88 0 1 0 5.76 0 a2.88 2.88 0 1 0 -5.76 0z" fill="black"></path><path d="M951.62 471.5 a2.88 2.88 0 1 0 5.76 0 a2.88 2.88 0 1 0 -5.76 0zM974.62 517.5 a2.88 2.88 0 1 0 5.76 0 a2.88 2.88 0 1 0 -5.76 0zM974.62 747.5 a2.88 2.88 0 1 0 5.76 0 a2.88 2.88 0 1 0 -5.76 0zM974.62 563.5 a2.88 2.88 0 1 0 5.76 0 a2.88 2.88 0 1 0 -5.76 0zM974.62 632.5 a2.88 2.88 0 1 0 5.76 0 a2.88 2.88 0 1 0 -5.76 0zM974.62 586.5 a2.88 2.88 0 1 0 5.76 0 a2.88 2.88 0 1 0 -5.76 0zM1020.62 632.5 a2.88 2.88 0 1 0 5.76 0 a2.88 2.88 0 1 0 -5.76 0zM974.62 885.5 a2.88 2.88 0 1 0 5.76 0 a2.88 2.88 0 1 0 -5.76 0z" fill="black"></path><path d="M882.62 862.5 a2.88 2.88 0 1 0 5.76 0 a2.88 2.88 0 1 0 -5.76 0zM905.62 1023.5 a2.88 2.88 0 1 0 5.76 0 a2.88 2.88 0 1 0 -5.76 0z" fill="black"></path><path d="M997.62 862.5 a2.88 2.88 0 1 0 5.76 0 a2.88 2.88 0 1 0 -5.76 0zM974.62 908.5 a2.88 2.88 0 1 0 5.76 0 a2.88 2.88 0 1 0 -5.76 0z" fill="black"></path><path d="M859.62 241.5 a2.88 2.88 0 1 0 5.76 0 a2.88 2.88 0 1 0 -5.76 0zM836.62 241.5 a2.88 2.88 0 1 0 5.76 0 a2.88 2.88 0 1 0 -5.76 0zM813.62 517.5 a2.88 2.88 0 1 0 5.76 0 a2.88 2.88 0 1 0 -5.76 0zM882.62 517.5 a2.88 2.88 0 1 0 5.76 0 a2.88 2.88 0 1 0 -5.76 0zM882.62 241.5 a2.88 2.88 0 1 0 5.76 0 a2.88 2.88 0 1 0 -5.76 0zM882.62 770.5 a2.88 2.88 0 1 0 5.76 0 a2.88 2.88 0 1 0 -5.76 0zM813.62 356.5 a2.88 2.88 0 1 0 5.76 0 a2.88 2.88 0 1 0 -5.76 0zM790.62 402.5 a2.88 2.88 0 1 0 5.76 0 a2.88 2.88 0 1 0 -5.76 0zM790.62 425.5 a2.88 2.88 0 1 0 5.76 0 a2.88 2.88 0 1 0 -5.76 0zM836.62 517.5 a2.88 2.88 0 1 0 5.76 0 a2.88 2.88 0 1 0 -5.76 0z" fill="black"></path><path d="M1020.62 563.5 a2.88 2.88 0 1 0 5.76 0 a2.88 2.88 0 1 0 -5.76 0zM1066.62 540.5 a2.88 2.88 0 1 0 5.76 0 a2.88 2.88 0 1 0 -5.76 0zM997.62 816.5 a2.88 2.88 0 1 0 5.76 0 a2.88 2.88 0 1 0 -5.76 0zM1043.62 540.5 a2.88 2.88 0 1 0 5.76 0 a2.88 2.88 0 1 0 -5.76 0zM997.62 425.5 a2.88 2.88 0 1 0 5.76 0 a2.88 2.88 0 1 0 -5.76 0zM1020.62 701.5 a2.88 2.88 0 1 0 5.76 0 a2.88 2.88 0 1 0 -5.76 0zM1066.62 632.5 a2.88 2.88 0 1 0 5.76 0 a2.88 2.88 0 1 0 -5.76 0z" fill="black"></path><path d="M767.62 310.5 a2.88 2.88 0 1 0 5.76 0 a2.88 2.88 0 1 0 -5.76 0zM744.62 241.5 a2.88 2.88 0 1 0 5.76 0 a2.88 2.88 0 1 0 -5.76 0zM813.62 862.5 a2.88 2.88 0 1 0 5.76 0 a2.88 2.88 0 1 0 -5.76 0zM813.62 770.5 a2.88 2.88 0 1 0 5.76 0 a2.88 2.88 0 1 0 -5.76 0zM813.62 885.5 a2.88 2.88 0 1 0 5.76 0 a2.88 2.88 0 1 0 -5.76 0zM790.62 310.5 a2.88 2.88 0 1 0 5.76 0 a2.88 2.88 0 1 0 -5.76 0zM767.62 448.5 a2.88 2.88 0 1 0 5.76 0 a2.88 2.88 0 1 0 -5.76 0zM813.62 310.5 a2.88 2.88 0 1 0 5.76 0 a2.88 2.88 0 1 0 -5.76 0zM790.62 471.5 a2.88 2.88 0 1 0 5.76 0 a2.88 2.88 0 1 0 -5.76 0z" fill="black"></path><path d="M1043.62 908.5 a2.88 2.88 0 1 0 5.76 0 a2.88 2.88 0 1 0 -5.76 0z" fill="black"></path><path d="M744.62 517.5 a2.88 2.88 0 1 0 5.76 0 a2.88 2.88 0 1 0 -5.76 0zM767.62 724.5 a2.88 2.88 0 1 0 5.76 0 a2.88 2.88 0 1 0 -5.76 0zM813.62 793.5 a2.88 2.88 0 1 0 5.76 0 a2.88 2.88 0 1 0 -5.76 0zM790.62 747.5 a2.88 2.88 0 1 0 5.76 0 a2.88 2.88 0 1 0 -5.76 0zM767.62 655.5 a2.88 2.88 0 1 0 5.76 0 a2.88 2.88 0 1 0 -5.76 0zM813.62 816.5 a2.88 2.88 0 1 0 5.76 0 a2.88 2.88 0 1 0 -5.76 0zM813.62 908.5 a2.88 2.88 0 1 0 5.76 0 a2.88 2.88 0 1 0 -5.76 0z" fill="black"></path><path d="M1135.62 333.5 a2.88 2.88 0 1 0 5.76 0 a2.88 2.88 0 1 0 -5.76 0zM1158.62 310.5 a2.88 2.88 0 1 0 5.76 0 a2.88 2.88 0 1 0 -5.76 0zM1066.62 793.5 a2.88 2.88 0 1 0 5.76 0 a2.88 2.88 0 1 0 -5.76 0zM1066.62 816.5 a2.88 2.88 0 1 0 5.76 0 a2.88 2.88 0 1 0 -5.76 0zM1181.62 379.5 a2.88 2.88 0 1 0 5.76 0 a2.88 2.88 0 1 0 -5.76 0zM1089.62 287.5 a2.88 2.88 0 1 0 5.76 0 a2.88 2.88 0 1 0 -5.76 0zM1066.62 655.5 a2.88 2.88 0 1 0 5.76 0 a2.88 2.88 0 1 0 -5.76 0zM1066.62 724.5 a2.88 2.88 0 1 0 5.76 0 a2.88 2.88 0 1 0 -5.76 0zM1112.62 310.5 a2.88 2.88 0 1 0 5.76 0 a2.88 2.88 0 1 0 -5.76 0z" fill="black"></path><path d="M744.62 724.5 a2.88 2.88 0 1 0 5.76 0 a2.88 2.88 0 1 0 -5.76 0zM744.62 862.5 a2.88 2.88 0 1 0 5.76 0 a2.88 2.88 0 1 0 -5.76 0zM767.62 793.5 a2.88 2.88 0 1 0 5.76 0 a2.88 2.88 0 1 0 -5.76 0z" fill="black"></path><path d="M1112.62 632.5 a2.88 2.88 0 1 0 5.76 0 a2.88 2.88 0 1 0 -5.76 0zM1135.62 586.5 a2.88 2.88 0 1 0 5.76 0 a2.88 2.88 0 1 0 -5.76 0zM1158.62 632.5 a2.88 2.88 0 1 0 5.76 0 a2.88 2.88 0 1 0 -5.76 0zM1112.62 793.5 a2.88 2.88 0 1 0 5.76 0 a2.88 2.88 0 1 0 -5.76 0z" fill="black"></path><path d="M744.62 908.5 a2.88 2.88 0 1 0 5.76 0 a2.88 2.88 0 1 0 -5.76 0z" fill="black"></path><path d="M1112.62 747.5 a2.88 2.88 0 1 0 5.76 0 a2.88 2.88 0 1 0 -5.76 0zM1135.62 678.5 a2.88 2.88 0 1 0 5.76 0 a2.88 2.88 0 1 0 -5.76 0z" fill="black"></path><path d="M698.62 356.5 a2.88 2.88 0 1 0 5.76 0 a2.88 2.88 0 1 0 -5.76 0zM721.62 310.5 a2.88 2.88 0 1 0 5.76 0 a2.88 2.88 0 1 0 -5.76 0zM744.62 586.5 a2.88 2.88 0 1 0 5.76 0 a2.88 2.88 0 1 0 -5.76 0zM675.62 425.5 a2.88 2.88 0 1 0 5.76 0 a2.88 2.88 0 1 0 -5.76 0zM698.62 448.5 a2.88 2.88 0 1 0 5.76 0 a2.88 2.88 0 1 0 -5.76 0zM675.62 287.5 a2.88 2.88 0 1 0 5.76 0 a2.88 2.88 0 1 0 -5.76 0zM721.62 402.5 a2.88 2.88 0 1 0 5.76 0 a2.88 2.88 0 1 0 -5.76 0zM744.62 655.5 a2.88 2.88 0 1 0 5.76 0 a2.88 2.88 0 1 0 -5.76 0zM744.62 678.5 a2.88 2.88 0 1 0 5.76 0 a2.88 2.88 0 1 0 -5.76 0z" fill="black"></path><path d="M1204.62 264.5 a2.88 2.88 0 1 0 5.76 0 a2.88 2.88 0 1 0 -5.76 0zM1158.62 678.5 a2.88 2.88 0 1 0 5.76 0 a2.88 2.88 0 1 0 -5.76 0zM1158.62 448.5 a2.88 2.88 0 1 0 5.76 0 a2.88 2.88 0 1 0 -5.76 0zM1227.62 241.5 a2.88 2.88 0 1 0 5.76 0 a2.88 2.88 0 1 0 -5.76 0zM1250.62 402.5 a2.88 2.88 0 1 0 5.76 0 a2.88 2.88 0 1 0 -5.76 0zM1158.62 517.5 a2.88 2.88 0 1 0 5.76 0 a2.88 2.88 0 1 0 -5.76 0zM1181.62 287.5 a2.88 2.88 0 1 0 5.76 0 a2.88 2.88 0 1 0 -5.76 0zM1181.62 310.5 a2.88 2.88 0 1 0 5.76 0 a2.88 2.88 0 1 0 -5.76 0zM1181.62 402.5 a2.88 2.88 0 1 0 5.76 0 a2.88 2.88 0 1 0 -5.76 0zM1158.62 747.5 a2.88 2.88 0 1 0 5.76 0 a2.88 2.88 0 1 0 -5.76 0z" fill="black"></path><path d="M698.62 632.5 a2.88 2.88 0 1 0 5.76 0 a2.88 2.88 0 1 0 -5.76 0zM675.62 678.5 a2.88 2.88 0 1 0 5.76 0 a2.88 2.88 0 1 0 -5.76 0zM675.62 586.5 a2.88 2.88 0 1 0 5.76 0 a2.88 2.88 0 1 0 -5.76 0zM675.62 793.5 a2.88 2.88 0 1 0 5.76 0 a2.88 2.88 0 1 0 -5.76 0zM652.62 701.5 a2.88 2.88 0 1 0 5.76 0 a2.88 2.88 0 1 0 -5.76 0z" fill="black"></path><path d="M1204.62 747.5 a2.88 2.88 0 1 0 5.76 0 a2.88 2.88 0 1 0 -5.76 0zM1181.62 1000.5 a2.88 2.88 0 1 0 5.76 0 a2.88 2.88 0 1 0 -5.76 0zM1204.62 770.5 a2.88 2.88 0 1 0 5.76 0 a2.88 2.88 0 1 0 -5.76 0zM1181.62 908.5 a2.88 2.88 0 1 0 5.76 0 a2.88 2.88 0 1 0 -5.76 0zM1181.62 1046.5 a2.88 2.88 0 1 0 5.76 0 a2.88 2.88 0 1 0 -5.76 0z" fill="black"></path><path d="M675.62 908.5 a2.88 2.88 0 1 0 5.76 0 a2.88 2.88 0 1 0 -5.76 0z" fill="black"></path><path d="M1227.62 517.5 a2.88 2.88 0 1 0 5.76 0 a2.88 2.88 0 1 0 -5.76 0zM1227.62 678.5 a2.88 2.88 0 1 0 5.76 0 a2.88 2.88 0 1 0 -5.76 0zM1250.62 816.5 a2.88 2.88 0 1 0 5.76 0 a2.88 2.88 0 1 0 -5.76 0zM1250.62 655.5 a2.88 2.88 0 1 0 5.76 0 a2.88 2.88 0 1 0 -5.76 0zM1227.62 724.5 a2.88 2.88 0 1 0 5.76 0 a2.88 2.88 0 1 0 -5.76 0zM1250.62 839.5 a2.88 2.88 0 1 0 5.76 0 a2.88 2.88 0 1 0 -5.76 0zM1204.62 793.5 a2.88 2.88 0 1 0 5.76 0 a2.88 2.88 0 1 0 -5.76 0z" fill="black"></path><path d="M652.62 379.5 a2.88 2.88 0 1 0 5.76 0 a2.88 2.88 0 1 0 -5.76 0zM652.62 931.5 a2.88 2.88 0 1 0 5.76 0 a2.88 2.88 0 1 0 -5.76 0zM652.62 977.5 a2.88 2.88 0 1 0 5.76 0 a2.88 2.88 0 1 0 -5.76 0zM629.62 287.5 a2.88 2.88 0 1 0 5.76 0 a2.88 2.88 0 1 0 -5.76 0zM675.62 379.5 a2.88 2.88 0 1 0 5.76 0 a2.88 2.88 0 1 0 -5.76 0zM583.62 310.5 a2.88 2.88 0 1 0 5.76 0 a2.88 2.88 0 1 0 -5.76 0zM652.62 839.5 a2.88 2.88 0 1 0 5.76 0 a2.88 2.88 0 1 0 -5.76 0zM675.62 862.5 a2.88 2.88 0 1 0 5.76 0 a2.88 2.88 0 1 0 -5.76 0z" fill="black"></path><path d="M675.62 1046.5 a2.88 2.88 0 1 0 5.76 0 a2.88 2.88 0 1 0 -5.76 0zM652.62 1046.5 a2.88 2.88 0 1 0 5.76 0 a2.88 2.88 0 1 0 -5.76 0z" fill="black"></path><path d="M1250.62 287.5 a2.88 2.88 0 1 0 5.76 0 a2.88 2.88 0 1 0 -5.76 0zM1250.62 908.5 a2.88 2.88 0 1 0 5.76 0 a2.88 2.88 0 1 0 -5.76 0zM1273.62 241.5 a2.88 2.88 0 1 0 5.76 0 a2.88 2.88 0 1 0 -5.76 0zM1296.62 655.5 a2.88 2.88 0 1 0 5.76 0 a2.88 2.88 0 1 0 -5.76 0zM1296.62 241.5 a2.88 2.88 0 1 0 5.76 0 a2.88 2.88 0 1 0 -5.76 0zM1296.62 333.5 a2.88 2.88 0 1 0 5.76 0 a2.88 2.88 0 1 0 -5.76 0zM1250.62 701.5 a2.88 2.88 0 1 0 5.76 0 a2.88 2.88 0 1 0 -5.76 0zM1296.62 540.5 a2.88 2.88 0 1 0 5.76 0 a2.88 2.88 0 1 0 -5.76 0zM1250.62 494.5 a2.88 2.88 0 1 0 5.76 0 a2.88 2.88 0 1 0 -5.76 0zM1319.62 540.5 a2.88 2.88 0 1 0 5.76 0 a2.88 2.88 0 1 0 -5.76 0z" fill="black"></path><path d="M629.62 517.5 a2.88 2.88 0 1 0 5.76 0 a2.88 2.88 0 1 0 -5.76 0zM606.62 862.5 a2.88 2.88 0 1 0 5.76 0 a2.88 2.88 0 1 0 -5.76 0zM606.62 885.5 a2.88 2.88 0 1 0 5.76 0 a2.88 2.88 0 1 0 -5.76 0zM606.62 586.5 a2.88 2.88 0 1 0 5.76 0 a2.88 2.88 0 1 0 -5.76 0zM583.62 494.5 a2.88 2.88 0 1 0 5.76 0 a2.88 2.88 0 1 0 -5.76 0zM560.62 517.5 a2.88 2.88 0 1 0 5.76 0 a2.88 2.88 0 1 0 -5.76 0zM583.62 425.5 a2.88 2.88 0 1 0 5.76 0 a2.88 2.88 0 1 0 -5.76 0z" fill="black"></path><path d="M1342.62 379.5 a2.88 2.88 0 1 0 5.76 0 a2.88 2.88 0 1 0 -5.76 0zM1319.62 379.5 a2.88 2.88 0 1 0 5.76 0 a2.88 2.88 0 1 0 -5.76 0zM1250.62 977.5 a2.88 2.88 0 1 0 5.76 0 a2.88 2.88 0 1 0 -5.76 0zM1296.62 931.5 a2.88 2.88 0 1 0 5.76 0 a2.88 2.88 0 1 0 -5.76 0zM1296.62 747.5 a2.88 2.88 0 1 0 5.76 0 a2.88 2.88 0 1 0 -5.76 0zM1296.62 770.5 a2.88 2.88 0 1 0 5.76 0 a2.88 2.88 0 1 0 -5.76 0zM1250.62 1000.5 a2.88 2.88 0 1 0 5.76 0 a2.88 2.88 0 1 0 -5.76 0zM1319.62 563.5 a2.88 2.88 0 1 0 5.76 0 a2.88 2.88 0 1 0 -5.76 0zM1296.62 793.5 a2.88 2.88 0 1 0 5.76 0 a2.88 2.88 0 1 0 -5.76 0z" fill="black"></path><path d="M1342.62 241.5 a2.88 2.88 0 1 0 5.76 0 a2.88 2.88 0 1 0 -5.76 0zM1365.62 333.5 a2.88 2.88 0 1 0 5.76 0 a2.88 2.88 0 1 0 -5.76 0zM1411.62 425.5 a2.88 2.88 0 1 0 5.76 0 a2.88 2.88 0 1 0 -5.76 0zM1411.62 517.5 a2.88 2.88 0 1 0 5.76 0 a2.88 2.88 0 1 0 -5.76 0zM1411.62 540.5 a2.88 2.88 0 1 0 5.76 0 a2.88 2.88 0 1 0 -5.76 0zM1388.62 425.5 a2.88 2.88 0 1 0 5.76 0 a2.88 2.88 0 1 0 -5.76 0zM1319.62 241.5 a2.88 2.88 0 1 0 5.76 0 a2.88 2.88 0 1 0 -5.76 0zM1319.62 310.5 a2.88 2.88 0 1 0 5.76 0 a2.88 2.88 0 1 0 -5.76 0zM1388.62 241.5 a2.88 2.88 0 1 0 5.76 0 a2.88 2.88 0 1 0 -5.76 0zM1342.62 816.5 a2.88 2.88 0 1 0 5.76 0 a2.88 2.88 0 1 0 -5.76 0z" fill="black"></path><path d="M537.62 563.5 a2.88 2.88 0 1 0 5.76 0 a2.88 2.88 0 1 0 -5.76 0zM560.62 655.5 a2.88 2.88 0 1 0 5.76 0 a2.88 2.88 0 1 0 -5.76 0zM560.62 747.5 a2.88 2.88 0 1 0 5.76 0 a2.88 2.88 0 1 0 -5.76 0zM560.62 701.5 a2.88 2.88 0 1 0 5.76 0 a2.88 2.88 0 1 0 -5.76 0z" fill="black"></path><path d="M1365.62 793.5 a2.88 2.88 0 1 0 5.76 0 a2.88 2.88 0 1 0 -5.76 0zM1342.62 839.5 a2.88 2.88 0 1 0 5.76 0 a2.88 2.88 0 1 0 -5.76 0z" fill="black"></path><path d="M491.62 448.5 a2.88 2.88 0 1 0 5.76 0 a2.88 2.88 0 1 0 -5.76 0zM537.62 816.5 a2.88 2.88 0 1 0 5.76 0 a2.88 2.88 0 1 0 -5.76 0zM514.62 402.5 a2.88 2.88 0 1 0 5.76 0 a2.88 2.88 0 1 0 -5.76 0zM537.62 908.5 a2.88 2.88 0 1 0 5.76 0 a2.88 2.88 0 1 0 -5.76 0zM537.62 931.5 a2.88 2.88 0 1 0 5.76 0 a2.88 2.88 0 1 0 -5.76 0zM514.62 724.5 a2.88 2.88 0 1 0 5.76 0 a2.88 2.88 0 1 0 -5.76 0zM537.62 954.5 a2.88 2.88 0 1 0 5.76 0 a2.88 2.88 0 1 0 -5.76 0zM560.62 793.5 a2.88 2.88 0 1 0 5.76 0 a2.88 2.88 0 1 0 -5.76 0z" fill="black"></path><path d="M1434.62 609.5 a2.88 2.88 0 1 0 5.76 0 a2.88 2.88 0 1 0 -5.76 0zM1388.62 632.5 a2.88 2.88 0 1 0 5.76 0 a2.88 2.88 0 1 0 -5.76 0zM1457.62 655.5 a2.88 2.88 0 1 0 5.76 0 a2.88 2.88 0 1 0 -5.76 0zM1388.62 701.5 a2.88 2.88 0 1 0 5.76 0 a2.88 2.88 0 1 0 -5.76 0zM1480.62 563.5 a2.88 2.88 0 1 0 5.76 0 a2.88 2.88 0 1 0 -5.76 0zM1411.62 793.5 a2.88 2.88 0 1 0 5.76 0 a2.88 2.88 0 1 0 -5.76 0z" fill="black"></path><path d="M468.62 379.5 a2.88 2.88 0 1 0 5.76 0 a2.88 2.88 0 1 0 -5.76 0zM468.62 747.5 a2.88 2.88 0 1 0 5.76 0 a2.88 2.88 0 1 0 -5.76 0zM445.62 471.5 a2.88 2.88 0 1 0 5.76 0 a2.88 2.88 0 1 0 -5.76 0zM445.62 540.5 a2.88 2.88 0 1 0 5.76 0 a2.88 2.88 0 1 0 -5.76 0zM491.62 678.5 a2.88 2.88 0 1 0 5.76 0 a2.88 2.88 0 1 0 -5.76 0zM445.62 655.5 a2.88 2.88 0 1 0 5.76 0 a2.88 2.88 0 1 0 -5.76 0zM560.62 1046.5 a2.88 2.88 0 1 0 5.76 0 a2.88 2.88 0 1 0 -5.76 0zM514.62 770.5 a2.88 2.88 0 1 0 5.76 0 a2.88 2.88 0 1 0 -5.76 0zM537.62 1000.5 a2.88 2.88 0 1 0 5.76 0 a2.88 2.88 0 1 0 -5.76 0z" fill="black"></path><path d="M1411.62 839.5 a2.88 2.88 0 1 0 5.76 0 a2.88 2.88 0 1 0 -5.76 0zM1411.62 862.5 a2.88 2.88 0 1 0 5.76 0 a2.88 2.88 0 1 0 -5.76 0z" fill="black"></path><path d="M1434.62 747.5 a2.88 2.88 0 1 0 5.76 0 a2.88 2.88 0 1 0 -5.76 0zM1457.62 908.5 a2.88 2.88 0 1 0 5.76 0 a2.88 2.88 0 1 0 -5.76 0zM1457.62 770.5 a2.88 2.88 0 1 0 5.76 0 a2.88 2.88 0 1 0 -5.76 0zM1411.62 885.5 a2.88 2.88 0 1 0 5.76 0 a2.88 2.88 0 1 0 -5.76 0zM1457.62 954.5 a2.88 2.88 0 1 0 5.76 0 a2.88 2.88 0 1 0 -5.76 0z" fill="black"></path><path d="M422.62 264.5 a2.88 2.88 0 1 0 5.76 0 a2.88 2.88 0 1 0 -5.76 0zM445.62 287.5 a2.88 2.88 0 1 0 5.76 0 a2.88 2.88 0 1 0 -5.76 0zM445.62 379.5 a2.88 2.88 0 1 0 5.76 0 a2.88 2.88 0 1 0 -5.76 0zM468.62 793.5 a2.88 2.88 0 1 0 5.76 0 a2.88 2.88 0 1 0 -5.76 0zM445.62 678.5 a2.88 2.88 0 1 0 5.76 0 a2.88 2.88 0 1 0 -5.76 0z" fill="black"></path><path d="M1388.62 1046.5 a2.88 2.88 0 1 0 5.76 0 a2.88 2.88 0 1 0 -5.76 0z" fill="black"></path><path d="M399.62 241.5 a2.88 2.88 0 1 0 5.76 0 a2.88 2.88 0 1 0 -5.76 0zM422.62 816.5 a2.88 2.88 0 1 0 5.76 0 a2.88 2.88 0 1 0 -5.76 0zM376.62 678.5 a2.88 2.88 0 1 0 5.76 0 a2.88 2.88 0 1 0 -5.76 0zM376.62 379.5 a2.88 2.88 0 1 0 5.76 0 a2.88 2.88 0 1 0 -5.76 0zM353.62 264.5 a2.88 2.88 0 1 0 5.76 0 a2.88 2.88 0 1 0 -5.76 0zM330.62 471.5 a2.88 2.88 0 1 0 5.76 0 a2.88 2.88 0 1 0 -5.76 0zM376.62 287.5 a2.88 2.88 0 1 0 5.76 0 a2.88 2.88 0 1 0 -5.76 0zM376.62 241.5 a2.88 2.88 0 1 0 5.76 0 a2.88 2.88 0 1 0 -5.76 0zM353.62 724.5 a2.88 2.88 0 1 0 5.76 0 a2.88 2.88 0 1 0 -5.76 0zM376.62 540.5 a2.88 2.88 0 1 0 5.76 0 a2.88 2.88 0 1 0 -5.76 0z" fill="black"></path></mask></defs></svg>