<svg xmlns="http://www.w3.org/2000/svg" version="1.1" xmlns:xlink="http://www.w3.org/1999/xlink" xmlns:svgjs="http://svgjs.dev/svgjs" width="1440" height="900" preserveAspectRatio="none" viewBox="0 0 1440 900"><g mask="url(&quot;#SvgjsMask1005&quot;)" fill="none"><rect width="1440" height="900" x="0" y="0" fill="#1e3266"></rect><path d="M1488 900L0 900 L0 492.08Q83.41 455.49, 120 538.9Q177.02 523.92, 192 580.95Q192.86 509.81, 264 510.66Q284.18 458.84, 336 479.02Q402.68 425.69, 456 492.37Q523.72 440.09, 576 507.81Q649.44 461.25, 696 534.7Q723.34 442.04, 816 469.37Q842.36 423.73, 888 450.09Q938.99 429.07, 960 480.06Q1053.09 501.15, 1032 594.24Q1035.08 477.32, 1152 480.4Q1217.6 426, 1272 491.59Q1346.52 494.11, 1344 568.62Q1324.35 476.97, 1416 457.32Q1458.27 427.59, 1488 469.85z" fill="#182f5d"></path><path d="M1488 900L0 900 L0 670.66Q-11.3 587.36, 72 576.06Q133.95 566.01, 144 627.96Q237.62 601.58, 264 695.2Q273.03 584.24, 384 593.27Q407.45 544.72, 456 568.17Q509.87 550.04, 528 603.91Q611.26 615.17, 600 698.44Q592.1 570.54, 720 562.64Q787.9 510.54, 840 578.44Q928.46 594.9, 912 683.36Q905.65 605.01, 984 598.67Q1008.3 550.97, 1056 575.27Q1133.23 532.5, 1176 609.73Q1272.04 585.77, 1296 681.81Q1320.85 634.65, 1368 659.5Q1392.14 563.64, 1488 587.79z" fill="#25467d"></path><path d="M1536 900L0 900 L0 733.19Q74.21 735.4, 72 809.62Q143.12 760.74, 192 831.85Q216.63 736.48, 312 761.1Q355.38 732.48, 384 775.86Q401.39 721.25, 456 738.65Q525.71 688.36, 576 758.07Q623.37 733.44, 648 780.81Q657.8 670.61, 768 680.41Q871.15 711.56, 840 814.7Q817.77 720.47, 912 698.24Q963.07 629.31, 1032 680.38Q1138.01 666.39, 1152 772.4Q1204.7 705.1, 1272 757.8Q1272.32 686.12, 1344 686.43Q1395.16 665.6, 1416 716.76Q1494.11 674.87, 1536 752.98z" fill="#356cb1"></path><path d="M1536 900L0 900 L0 905.03Q4.14 837.17, 72 841.32Q116.38 765.7, 192 810.08Q235.86 781.94, 264 825.8Q323.42 813.22, 336 872.65Q403.84 868.49, 408 936.32Q412.09 820.41, 528 824.51Q580.17 756.68, 648 808.86Q698.69 739.55, 768 790.24Q820.44 770.68, 840 823.12Q906.87 817.99, 912 884.86Q991.28 844.14, 1032 923.43Q1042.47 813.9, 1152 824.38Q1196.72 749.11, 1272 793.83Q1331.64 781.48, 1344 841.12Q1427.18 852.3, 1416 935.48Q1406.89 806.37, 1536 797.26z" fill="rgba(255, 179, 112, 1)"></path></g><defs><mask id="SvgjsMask1005"><rect width="1440" height="900" fill="#ffffff"></rect></mask></defs></svg>