<svg xmlns="http://www.w3.org/2000/svg" version="1.1" xmlns:xlink="http://www.w3.org/1999/xlink" xmlns:svgjs="http://svgjs.dev/svgjs" width="1920" height="1080" preserveAspectRatio="none" viewBox="0 0 1920 1080"><g mask="url(&quot;#SvgjsMask1015&quot;)" fill="none"><rect width="1920" height="1080" x="0" y="0" fill="rgba(14, 55, 79, 1)"></rect><path d="M235.52 1125.27C408.03 1114.87 535.45 796.16 843.13 795.54 1150.81 794.92 1146.94 930.54 1450.74 930.54 1754.55 930.54 1902.75 796.35 2058.35 795.54" stroke="rgba(51,121,194,0.58)" stroke-width="2"></path><path d="M1050.3 1269.54C1257.12 1182.71 1303.58 541.5 1572.15 539.67 1840.73 537.84 1920.82 981.11 2094.01 1014.87" stroke="rgba(51,121,194,0.58)" stroke-width="2"></path><path d="M553.89 1214.9C789.51 1190.49 888.07 712.51 1337.52 682.27 1786.97 652.03 1906.09 334.11 2121.15 325.87" stroke="rgba(51,121,194,0.58)" stroke-width="2"></path><path d="M559.77 1109.53C784.4 1090.22 876.24 667.18 1323.65 630.14 1771.06 593.1 1864.74 183.49 2087.53 165.74" stroke="rgba(51,121,194,0.58)" stroke-width="2"></path><path d="M426.77 1225.76C602.57 1206.81 710.07 825.2 1008.51 823.49 1306.95 821.78 1299.37 958.49 1590.24 958.49 1881.11 958.49 2022.68 824.37 2171.98 823.49" stroke="rgba(51,121,194,0.58)" stroke-width="2"></path></g><defs><mask id="SvgjsMask1015"><rect width="1920" height="1080" fill="#ffffff"></rect></mask></defs></svg>