<svg xmlns="http://www.w3.org/2000/svg" version="1.1" xmlns:xlink="http://www.w3.org/1999/xlink" xmlns:svgjs="http://svgjs.dev/svgjs" width="480" height="800" preserveAspectRatio="none" viewBox="0 0 480 800"><g mask="url(&quot;#SvgjsMask1073&quot;)" fill="none"><rect width="480" height="800" x="0" y="0" fill="#0e2a47"></rect><path d="M0 -75L64.95 -37.5L64.95 37.5L0 75L-64.95 37.5L-64.95 -37.5zM64.95 37.5L129.91 75L129.91 150L64.95 187.5L0 150L0 75zM0 150L64.95 187.5L64.95 262.5L0 300L-64.95 262.5L-64.95 187.5zM64.95 262.5L129.91 300L129.91 375L64.95 412.5L0 375L0 300zM0 375L64.95 412.5L64.95 487.5L0 525L-64.95 487.5L-64.95 412.5zM64.95 487.5L129.91 525L129.91 600L64.95 637.5L0 600L0 525zM0 600L64.95 637.5L64.95 712.5L0 750L-64.95 712.5L-64.95 637.5zM64.95 712.5L129.91 750L129.91 825L64.95 862.5L0 825L0 750zM129.91 -75L194.86 -37.5L194.86 37.5L129.91 75L64.95 37.5L64.95 -37.5zM194.86 37.5L259.81 75L259.81 150L194.86 187.5L129.91 150L129.91 75zM129.91 150L194.86 187.5L194.86 262.5L129.91 300L64.95 262.5L64.95 187.5zM194.86 262.5L259.81 300L259.81 375L194.86 412.5L129.91 375L129.91 300zM129.91 375L194.86 412.5L194.86 487.5L129.91 525L64.95 487.5L64.95 412.5zM194.86 487.5L259.81 525L259.81 600L194.86 637.5L129.91 600L129.91 525zM129.91 600L194.86 637.5L194.86 712.5L129.91 750L64.95 712.5L64.95 637.5zM194.86 712.5L259.81 750L259.81 825L194.86 862.5L129.91 825L129.91 750zM259.81 -75L324.77 -37.5L324.77 37.5L259.81 75L194.86 37.5L194.86 -37.5zM324.77 37.5L389.72 75L389.72 150L324.77 187.5L259.81 150L259.81 75zM259.81 150L324.77 187.5L324.77 262.5L259.81 300L194.86 262.5L194.86 187.5zM324.77 262.5L389.72 300L389.72 375L324.77 412.5L259.81 375L259.81 300zM259.81 375L324.77 412.5L324.77 487.5L259.81 525L194.86 487.5L194.86 412.5zM324.77 487.5L389.72 525L389.72 600L324.77 637.5L259.81 600L259.81 525zM259.81 600L324.77 637.5L324.77 712.5L259.81 750L194.86 712.5L194.86 637.5zM324.77 712.5L389.72 750L389.72 825L324.77 862.5L259.81 825L259.81 750zM389.72 -75L454.68 -37.5L454.68 37.5L389.72 75L324.77 37.5L324.77 -37.5zM454.68 37.5L519.63 75L519.63 150L454.68 187.5L389.72 150L389.72 75zM389.72 150L454.68 187.5L454.68 262.5L389.72 300L324.77 262.5L324.77 187.5zM454.68 262.5L519.63 300L519.63 375L454.68 412.5L389.72 375L389.72 300zM389.72 375L454.68 412.5L454.68 487.5L389.72 525L324.77 487.5L324.77 412.5zM454.68 487.5L519.63 525L519.63 600L454.68 637.5L389.72 600L389.72 525zM389.72 600L454.68 637.5L454.68 712.5L389.72 750L324.77 712.5L324.77 637.5zM454.68 712.5L519.63 750L519.63 825L454.68 862.5L389.72 825L389.72 750z" stroke="#03305d" stroke-width="2"></path><path d="M-7.5 -75 a7.5 7.5 0 1 0 15 0 a7.5 7.5 0 1 0 -15 0zM57.45 -37.5 a7.5 7.5 0 1 0 15 0 a7.5 7.5 0 1 0 -15 0zM57.45 37.5 a7.5 7.5 0 1 0 15 0 a7.5 7.5 0 1 0 -15 0zM-7.5 75 a7.5 7.5 0 1 0 15 0 a7.5 7.5 0 1 0 -15 0zM-72.45 37.5 a7.5 7.5 0 1 0 15 0 a7.5 7.5 0 1 0 -15 0zM-72.45 -37.5 a7.5 7.5 0 1 0 15 0 a7.5 7.5 0 1 0 -15 0zM122.41 75 a7.5 7.5 0 1 0 15 0 a7.5 7.5 0 1 0 -15 0zM122.41 150 a7.5 7.5 0 1 0 15 0 a7.5 7.5 0 1 0 -15 0zM57.45 187.5 a7.5 7.5 0 1 0 15 0 a7.5 7.5 0 1 0 -15 0zM-7.5 150 a7.5 7.5 0 1 0 15 0 a7.5 7.5 0 1 0 -15 0zM57.45 262.5 a7.5 7.5 0 1 0 15 0 a7.5 7.5 0 1 0 -15 0zM-7.5 300 a7.5 7.5 0 1 0 15 0 a7.5 7.5 0 1 0 -15 0zM-72.45 262.5 a7.5 7.5 0 1 0 15 0 a7.5 7.5 0 1 0 -15 0zM-72.45 187.5 a7.5 7.5 0 1 0 15 0 a7.5 7.5 0 1 0 -15 0zM122.41 300 a7.5 7.5 0 1 0 15 0 a7.5 7.5 0 1 0 -15 0zM122.41 375 a7.5 7.5 0 1 0 15 0 a7.5 7.5 0 1 0 -15 0zM57.45 412.5 a7.5 7.5 0 1 0 15 0 a7.5 7.5 0 1 0 -15 0zM-7.5 375 a7.5 7.5 0 1 0 15 0 a7.5 7.5 0 1 0 -15 0zM57.45 487.5 a7.5 7.5 0 1 0 15 0 a7.5 7.5 0 1 0 -15 0zM-7.5 525 a7.5 7.5 0 1 0 15 0 a7.5 7.5 0 1 0 -15 0zM-72.45 487.5 a7.5 7.5 0 1 0 15 0 a7.5 7.5 0 1 0 -15 0zM-72.45 412.5 a7.5 7.5 0 1 0 15 0 a7.5 7.5 0 1 0 -15 0zM122.41 525 a7.5 7.5 0 1 0 15 0 a7.5 7.5 0 1 0 -15 0zM122.41 600 a7.5 7.5 0 1 0 15 0 a7.5 7.5 0 1 0 -15 0zM57.45 637.5 a7.5 7.5 0 1 0 15 0 a7.5 7.5 0 1 0 -15 0zM-7.5 600 a7.5 7.5 0 1 0 15 0 a7.5 7.5 0 1 0 -15 0zM57.45 712.5 a7.5 7.5 0 1 0 15 0 a7.5 7.5 0 1 0 -15 0zM-7.5 750 a7.5 7.5 0 1 0 15 0 a7.5 7.5 0 1 0 -15 0zM-72.45 712.5 a7.5 7.5 0 1 0 15 0 a7.5 7.5 0 1 0 -15 0zM-72.45 637.5 a7.5 7.5 0 1 0 15 0 a7.5 7.5 0 1 0 -15 0zM122.41 750 a7.5 7.5 0 1 0 15 0 a7.5 7.5 0 1 0 -15 0zM122.41 825 a7.5 7.5 0 1 0 15 0 a7.5 7.5 0 1 0 -15 0zM57.45 862.5 a7.5 7.5 0 1 0 15 0 a7.5 7.5 0 1 0 -15 0zM-7.5 825 a7.5 7.5 0 1 0 15 0 a7.5 7.5 0 1 0 -15 0zM122.41 -75 a7.5 7.5 0 1 0 15 0 a7.5 7.5 0 1 0 -15 0zM187.36 -37.5 a7.5 7.5 0 1 0 15 0 a7.5 7.5 0 1 0 -15 0zM187.36 37.5 a7.5 7.5 0 1 0 15 0 a7.5 7.5 0 1 0 -15 0zM252.31 75 a7.5 7.5 0 1 0 15 0 a7.5 7.5 0 1 0 -15 0zM252.31 150 a7.5 7.5 0 1 0 15 0 a7.5 7.5 0 1 0 -15 0zM187.36 187.5 a7.5 7.5 0 1 0 15 0 a7.5 7.5 0 1 0 -15 0zM187.36 262.5 a7.5 7.5 0 1 0 15 0 a7.5 7.5 0 1 0 -15 0zM252.31 300 a7.5 7.5 0 1 0 15 0 a7.5 7.5 0 1 0 -15 0zM252.31 375 a7.5 7.5 0 1 0 15 0 a7.5 7.5 0 1 0 -15 0zM187.36 412.5 a7.5 7.5 0 1 0 15 0 a7.5 7.5 0 1 0 -15 0zM187.36 487.5 a7.5 7.5 0 1 0 15 0 a7.5 7.5 0 1 0 -15 0zM252.31 525 a7.5 7.5 0 1 0 15 0 a7.5 7.5 0 1 0 -15 0zM252.31 600 a7.5 7.5 0 1 0 15 0 a7.5 7.5 0 1 0 -15 0zM187.36 637.5 a7.5 7.5 0 1 0 15 0 a7.5 7.5 0 1 0 -15 0zM187.36 712.5 a7.5 7.5 0 1 0 15 0 a7.5 7.5 0 1 0 -15 0zM252.31 750 a7.5 7.5 0 1 0 15 0 a7.5 7.5 0 1 0 -15 0zM252.31 825 a7.5 7.5 0 1 0 15 0 a7.5 7.5 0 1 0 -15 0zM187.36 862.5 a7.5 7.5 0 1 0 15 0 a7.5 7.5 0 1 0 -15 0zM252.31 -75 a7.5 7.5 0 1 0 15 0 a7.5 7.5 0 1 0 -15 0zM317.27 -37.5 a7.5 7.5 0 1 0 15 0 a7.5 7.5 0 1 0 -15 0zM317.27 37.5 a7.5 7.5 0 1 0 15 0 a7.5 7.5 0 1 0 -15 0zM382.22 75 a7.5 7.5 0 1 0 15 0 a7.5 7.5 0 1 0 -15 0zM382.22 150 a7.5 7.5 0 1 0 15 0 a7.5 7.5 0 1 0 -15 0zM317.27 187.5 a7.5 7.5 0 1 0 15 0 a7.5 7.5 0 1 0 -15 0zM317.27 262.5 a7.5 7.5 0 1 0 15 0 a7.5 7.5 0 1 0 -15 0zM382.22 300 a7.5 7.5 0 1 0 15 0 a7.5 7.5 0 1 0 -15 0zM382.22 375 a7.5 7.5 0 1 0 15 0 a7.5 7.5 0 1 0 -15 0zM317.27 412.5 a7.5 7.5 0 1 0 15 0 a7.5 7.5 0 1 0 -15 0zM317.27 487.5 a7.5 7.5 0 1 0 15 0 a7.5 7.5 0 1 0 -15 0zM382.22 525 a7.5 7.5 0 1 0 15 0 a7.5 7.5 0 1 0 -15 0zM382.22 600 a7.5 7.5 0 1 0 15 0 a7.5 7.5 0 1 0 -15 0zM317.27 637.5 a7.5 7.5 0 1 0 15 0 a7.5 7.5 0 1 0 -15 0zM317.27 712.5 a7.5 7.5 0 1 0 15 0 a7.5 7.5 0 1 0 -15 0zM382.22 750 a7.5 7.5 0 1 0 15 0 a7.5 7.5 0 1 0 -15 0zM382.22 825 a7.5 7.5 0 1 0 15 0 a7.5 7.5 0 1 0 -15 0zM317.27 862.5 a7.5 7.5 0 1 0 15 0 a7.5 7.5 0 1 0 -15 0zM382.22 -75 a7.5 7.5 0 1 0 15 0 a7.5 7.5 0 1 0 -15 0zM447.18 -37.5 a7.5 7.5 0 1 0 15 0 a7.5 7.5 0 1 0 -15 0zM447.18 37.5 a7.5 7.5 0 1 0 15 0 a7.5 7.5 0 1 0 -15 0zM512.13 75 a7.5 7.5 0 1 0 15 0 a7.5 7.5 0 1 0 -15 0zM512.13 150 a7.5 7.5 0 1 0 15 0 a7.5 7.5 0 1 0 -15 0zM447.18 187.5 a7.5 7.5 0 1 0 15 0 a7.5 7.5 0 1 0 -15 0zM447.18 262.5 a7.5 7.5 0 1 0 15 0 a7.5 7.5 0 1 0 -15 0zM512.13 300 a7.5 7.5 0 1 0 15 0 a7.5 7.5 0 1 0 -15 0zM512.13 375 a7.5 7.5 0 1 0 15 0 a7.5 7.5 0 1 0 -15 0zM447.18 412.5 a7.5 7.5 0 1 0 15 0 a7.5 7.5 0 1 0 -15 0zM447.18 487.5 a7.5 7.5 0 1 0 15 0 a7.5 7.5 0 1 0 -15 0zM512.13 525 a7.5 7.5 0 1 0 15 0 a7.5 7.5 0 1 0 -15 0zM512.13 600 a7.5 7.5 0 1 0 15 0 a7.5 7.5 0 1 0 -15 0zM447.18 637.5 a7.5 7.5 0 1 0 15 0 a7.5 7.5 0 1 0 -15 0zM447.18 712.5 a7.5 7.5 0 1 0 15 0 a7.5 7.5 0 1 0 -15 0zM512.13 750 a7.5 7.5 0 1 0 15 0 a7.5 7.5 0 1 0 -15 0zM512.13 825 a7.5 7.5 0 1 0 15 0 a7.5 7.5 0 1 0 -15 0zM447.18 862.5 a7.5 7.5 0 1 0 15 0 a7.5 7.5 0 1 0 -15 0z" fill="#03305d"></path><path d="M32.11 84.99L60.69 101.49L60.69 134.49L32.11 150.99L3.53 134.49L3.53 101.49zM60.69 134.49L89.27 150.99L89.27 183.99L60.69 200.49L32.11 183.99L32.11 150.99zM32.11 183.99L60.69 200.49L60.69 233.49L32.11 249.99L3.53 233.49L3.53 200.49zM60.69 233.49L89.27 249.99L89.27 282.99L60.69 299.49L32.11 282.99L32.11 249.99zM32.11 282.99L60.69 299.49L60.69 332.49L32.11 348.99L3.53 332.49L3.53 299.49zM32.11 381.99L60.69 398.49L60.69 431.49L32.11 447.99L3.53 431.49L3.53 398.49zM32.11 480.99L60.69 497.49L60.69 530.49L32.11 546.99L3.53 530.49L3.53 497.49zM60.69 629.49L89.27 645.99L89.27 678.99L60.69 695.49L32.11 678.99L32.11 645.99zM32.11 678.99L60.69 695.49L60.69 728.49L32.11 744.99L3.53 728.49L3.53 695.49zM60.69 728.49L89.27 744.99L89.27 777.99L60.69 794.49L32.11 777.99L32.11 744.99zM32.11 777.99L60.69 794.49L60.69 827.49L32.11 843.99L3.53 827.49L3.53 794.49zM89.27 -14.01L117.85 2.49L117.85 35.49L89.27 51.99L60.69 35.49L60.69 2.49zM117.85 134.49L146.43 150.99L146.43 183.99L117.85 200.49L89.27 183.99L89.27 150.99zM89.27 183.99L117.85 200.49L117.85 233.49L89.27 249.99L60.69 233.49L60.69 200.49zM89.27 381.99L117.85 398.49L117.85 431.49L89.27 447.99L60.69 431.49L60.69 398.49zM117.85 431.49L146.43 447.99L146.43 480.99L117.85 497.49L89.27 480.99L89.27 447.99zM89.27 480.99L117.85 497.49L117.85 530.49L89.27 546.99L60.69 530.49L60.69 497.49zM89.27 579.99L117.85 596.49L117.85 629.49L89.27 645.99L60.69 629.49L60.69 596.49zM117.85 629.49L146.43 645.99L146.43 678.99L117.85 695.49L89.27 678.99L89.27 645.99zM89.27 678.99L117.85 695.49L117.85 728.49L89.27 744.99L60.69 728.49L60.69 695.49zM89.27 777.99L117.85 794.49L117.85 827.49L89.27 843.99L60.69 827.49L60.69 794.49zM146.43 84.99L175.01 101.49L175.01 134.49L146.43 150.99L117.85 134.49L117.85 101.49zM175.01 134.49L203.59 150.99L203.59 183.99L175.01 200.49L146.43 183.99L146.43 150.99zM146.43 183.99L175.01 200.49L175.01 233.49L146.43 249.99L117.85 233.49L117.85 200.49zM175.01 332.49L203.59 348.99L203.59 381.99L175.01 398.49L146.43 381.99L146.43 348.99zM146.43 381.99L175.01 398.49L175.01 431.49L146.43 447.99L117.85 431.49L117.85 398.49zM175.01 431.49L203.59 447.99L203.59 480.99L175.01 497.49L146.43 480.99L146.43 447.99zM146.43 579.99L175.01 596.49L175.01 629.49L146.43 645.99L117.85 629.49L117.85 596.49zM175.01 728.49L203.59 744.99L203.59 777.99L175.01 794.49L146.43 777.99L146.43 744.99zM146.43 777.99L175.01 794.49L175.01 827.49L146.43 843.99L117.85 827.49L117.85 794.49zM232.17 35.49L260.75 51.99L260.75 84.99L232.17 101.49L203.59 84.99L203.59 51.99zM203.59 84.99L232.17 101.49L232.17 134.49L203.59 150.99L175.01 134.49L175.01 101.49zM203.59 282.99L232.17 299.49L232.17 332.49L203.59 348.99L175.01 332.49L175.01 299.49zM203.59 480.99L232.17 497.49L232.17 530.49L203.59 546.99L175.01 530.49L175.01 497.49zM203.59 678.99L232.17 695.49L232.17 728.49L203.59 744.99L175.01 728.49L175.01 695.49zM289.33 134.49L317.91 150.99L317.91 183.99L289.33 200.49L260.75 183.99L260.75 150.99zM289.33 332.49L317.91 348.99L317.91 381.99L289.33 398.49L260.75 381.99L260.75 348.99zM317.91 84.99L346.49 101.49L346.49 134.49L317.91 150.99L289.33 134.49L289.33 101.49zM317.91 282.99L346.49 299.49L346.49 332.49L317.91 348.99L289.33 332.49L289.33 299.49zM346.49 629.49L375.07 645.99L375.07 678.99L346.49 695.49L317.91 678.99L317.91 645.99zM403.65 35.49L432.23 51.99L432.23 84.99L403.65 101.49L375.07 84.99L375.07 51.99zM375.07 183.99L403.65 200.49L403.65 233.49L375.07 249.99L346.49 233.49L346.49 200.49zM375.07 381.99L403.65 398.49L403.65 431.49L375.07 447.99L346.49 431.49L346.49 398.49zM403.65 728.49L432.23 744.99L432.23 777.99L403.65 794.49L375.07 777.99L375.07 744.99zM432.23 -14.01L460.8 2.49L460.8 35.49L432.23 51.99L403.65 35.49L403.65 2.49zM432.23 84.99L460.8 101.49L460.8 134.49L432.23 150.99L403.65 134.49L403.65 101.49zM460.8 134.49L489.38 150.99L489.38 183.99L460.8 200.49L432.23 183.99L432.23 150.99zM432.23 282.99L460.8 299.49L460.8 332.49L432.23 348.99L403.65 332.49L403.65 299.49zM432.23 381.99L460.8 398.49L460.8 431.49L432.23 447.99L403.65 431.49L403.65 398.49zM460.8 530.49L489.38 546.99L489.38 579.99L460.8 596.49L432.23 579.99L432.23 546.99zM432.23 579.99L460.8 596.49L460.8 629.49L432.23 645.99L403.65 629.49L403.65 596.49zM460.8 629.49L489.38 645.99L489.38 678.99L460.8 695.49L432.23 678.99L432.23 645.99zM517.96 35.49L546.54 51.99L546.54 84.99L517.96 101.49L489.38 84.99L489.38 51.99zM489.38 84.99L517.96 101.49L517.96 134.49L489.38 150.99L460.8 134.49L460.8 101.49zM517.96 134.49L546.54 150.99L546.54 183.99L517.96 200.49L489.38 183.99L489.38 150.99zM517.96 431.49L546.54 447.99L546.54 480.99L517.96 497.49L489.38 480.99L489.38 447.99zM489.38 480.99L517.96 497.49L517.96 530.49L489.38 546.99L460.8 530.49L460.8 497.49zM517.96 530.49L546.54 546.99L546.54 579.99L517.96 596.49L489.38 579.99L489.38 546.99zM489.38 579.99L517.96 596.49L517.96 629.49L489.38 645.99L460.8 629.49L460.8 596.49zM517.96 629.49L546.54 645.99L546.54 678.99L517.96 695.49L489.38 678.99L489.38 645.99zM489.38 777.99L517.96 794.49L517.96 827.49L489.38 843.99L460.8 827.49L460.8 794.49z" stroke="rgba(6, 80, 156, 0.93)" stroke-width="2"></path></g><defs><mask id="SvgjsMask1073"><rect width="480" height="800" fill="#ffffff"></rect></mask></defs></svg>