<svg xmlns="http://www.w3.org/2000/svg" version="1.1" xmlns:xlink="http://www.w3.org/1999/xlink" xmlns:svgjs="http://svgjs.dev/svgjs" width="1440" height="900" preserveAspectRatio="none" viewBox="0 0 1440 900"><g mask="url(&quot;#SvgjsMask1003&quot;)" fill="none"><rect width="1440" height="900" x="0" y="0" fill="#0e2a47"></rect><path d="M50.72 -57.94L115.67 -20.44L115.67 54.56L50.72 92.06L-14.23 54.56L-14.23 -20.44zM50.72 167.06L115.67 204.56L115.67 279.56L50.72 317.06L-14.23 279.56L-14.23 204.56zM115.67 729.56L180.63 767.06L180.63 842.06L115.67 879.56L50.72 842.06L50.72 767.06zM245.58 279.56L310.53 317.06L310.53 392.06L245.58 429.56L180.63 392.06L180.63 317.06zM310.53 617.06L375.49 654.56L375.49 729.56L310.53 767.06L245.58 729.56L245.58 654.56zM375.49 729.56L440.44 767.06L440.44 842.06L375.49 879.56L310.53 842.06L310.53 767.06zM310.53 842.06L375.49 879.56L375.49 954.56L310.53 992.06L245.58 954.56L245.58 879.56zM505.4 504.56L570.35 542.06L570.35 617.06L505.4 654.56L440.44 617.06L440.44 542.06zM570.35 617.06L635.3 654.56L635.3 729.56L570.35 767.06L505.4 729.56L505.4 654.56zM570.35 842.06L635.3 879.56L635.3 954.56L570.35 992.06L505.4 954.56L505.4 879.56zM700.26 -57.94L765.21 -20.44L765.21 54.56L700.26 92.06L635.3 54.56L635.3 -20.44zM765.21 54.56L830.17 92.06L830.17 167.06L765.21 204.56L700.26 167.06L700.26 92.06zM700.26 842.06L765.21 879.56L765.21 954.56L700.26 992.06L635.3 954.56L635.3 879.56zM830.16 -57.94L895.12 -20.44L895.12 54.56L830.16 92.06L765.21 54.56L765.21 -20.44zM830.16 167.06L895.12 204.56L895.12 279.56L830.16 317.06L765.21 279.56L765.21 204.56zM895.12 729.56L960.07 767.06L960.07 842.06L895.12 879.56L830.16 842.06L830.16 767.06zM960.07 -57.94L1025.03 -20.44L1025.03 54.56L960.07 92.06L895.12 54.56L895.12 -20.44zM1025.03 54.56L1089.98 92.06L1089.98 167.06L1025.03 204.56L960.07 167.06L960.07 92.06zM1025.03 504.56L1089.98 542.06L1089.98 617.06L1025.03 654.56L960.07 617.06L960.07 542.06zM960.07 842.06L1025.03 879.56L1025.03 954.56L960.07 992.06L895.12 954.56L895.12 879.56zM1089.98 167.06L1154.93 204.56L1154.93 279.56L1089.98 317.06L1025.03 279.56L1025.03 204.56zM1154.93 504.56L1219.89 542.06L1219.89 617.06L1154.93 654.56L1089.98 617.06L1089.98 542.06zM1284.84 54.56L1349.79 92.06L1349.79 167.06L1284.84 204.56L1219.89 167.06L1219.89 92.06zM1219.89 167.06L1284.84 204.56L1284.84 279.56L1219.89 317.06L1154.93 279.56L1154.93 204.56zM1284.84 279.56L1349.79 317.06L1349.79 392.06L1284.84 429.56L1219.89 392.06L1219.89 317.06zM1284.84 729.56L1349.79 767.06L1349.79 842.06L1284.84 879.56L1219.89 842.06L1219.89 767.06zM1219.89 842.06L1284.84 879.56L1284.84 954.56L1219.89 992.06L1154.93 954.56L1154.93 879.56zM1349.8 167.06L1414.75 204.56L1414.75 279.56L1349.8 317.06L1284.84 279.56L1284.84 204.56zM1349.8 617.06L1414.75 654.56L1414.75 729.56L1349.8 767.06L1284.84 729.56L1284.84 654.56zM1414.75 729.56L1479.7 767.06L1479.7 842.06L1414.75 879.56L1349.8 842.06L1349.8 767.06zM1479.7 167.06L1544.66 204.56L1544.66 279.56L1479.7 317.06L1414.75 279.56L1414.75 204.56z" stroke="#03305d" stroke-width="2"></path><path d="M43.22 -57.94 a7.5 7.5 0 1 0 15 0 a7.5 7.5 0 1 0 -15 0zM108.17 -20.44 a7.5 7.5 0 1 0 15 0 a7.5 7.5 0 1 0 -15 0zM108.17 54.56 a7.5 7.5 0 1 0 15 0 a7.5 7.5 0 1 0 -15 0zM43.22 92.06 a7.5 7.5 0 1 0 15 0 a7.5 7.5 0 1 0 -15 0zM-21.73 54.56 a7.5 7.5 0 1 0 15 0 a7.5 7.5 0 1 0 -15 0zM-21.73 -20.44 a7.5 7.5 0 1 0 15 0 a7.5 7.5 0 1 0 -15 0zM43.22 167.06 a7.5 7.5 0 1 0 15 0 a7.5 7.5 0 1 0 -15 0zM108.17 204.56 a7.5 7.5 0 1 0 15 0 a7.5 7.5 0 1 0 -15 0zM108.17 279.56 a7.5 7.5 0 1 0 15 0 a7.5 7.5 0 1 0 -15 0zM43.22 317.06 a7.5 7.5 0 1 0 15 0 a7.5 7.5 0 1 0 -15 0zM-21.73 279.56 a7.5 7.5 0 1 0 15 0 a7.5 7.5 0 1 0 -15 0zM-21.73 204.56 a7.5 7.5 0 1 0 15 0 a7.5 7.5 0 1 0 -15 0zM108.17 729.56 a7.5 7.5 0 1 0 15 0 a7.5 7.5 0 1 0 -15 0zM173.13 767.06 a7.5 7.5 0 1 0 15 0 a7.5 7.5 0 1 0 -15 0zM173.13 842.06 a7.5 7.5 0 1 0 15 0 a7.5 7.5 0 1 0 -15 0zM108.17 879.56 a7.5 7.5 0 1 0 15 0 a7.5 7.5 0 1 0 -15 0zM43.22 842.06 a7.5 7.5 0 1 0 15 0 a7.5 7.5 0 1 0 -15 0zM43.22 767.06 a7.5 7.5 0 1 0 15 0 a7.5 7.5 0 1 0 -15 0zM238.08 279.56 a7.5 7.5 0 1 0 15 0 a7.5 7.5 0 1 0 -15 0zM303.03 317.06 a7.5 7.5 0 1 0 15 0 a7.5 7.5 0 1 0 -15 0zM303.03 392.06 a7.5 7.5 0 1 0 15 0 a7.5 7.5 0 1 0 -15 0zM238.08 429.56 a7.5 7.5 0 1 0 15 0 a7.5 7.5 0 1 0 -15 0zM173.13 392.06 a7.5 7.5 0 1 0 15 0 a7.5 7.5 0 1 0 -15 0zM173.13 317.06 a7.5 7.5 0 1 0 15 0 a7.5 7.5 0 1 0 -15 0zM303.03 617.06 a7.5 7.5 0 1 0 15 0 a7.5 7.5 0 1 0 -15 0zM367.99 654.56 a7.5 7.5 0 1 0 15 0 a7.5 7.5 0 1 0 -15 0zM367.99 729.56 a7.5 7.5 0 1 0 15 0 a7.5 7.5 0 1 0 -15 0zM303.03 767.06 a7.5 7.5 0 1 0 15 0 a7.5 7.5 0 1 0 -15 0zM238.08 729.56 a7.5 7.5 0 1 0 15 0 a7.5 7.5 0 1 0 -15 0zM238.08 654.56 a7.5 7.5 0 1 0 15 0 a7.5 7.5 0 1 0 -15 0zM432.94 767.06 a7.5 7.5 0 1 0 15 0 a7.5 7.5 0 1 0 -15 0zM432.94 842.06 a7.5 7.5 0 1 0 15 0 a7.5 7.5 0 1 0 -15 0zM367.99 879.56 a7.5 7.5 0 1 0 15 0 a7.5 7.5 0 1 0 -15 0zM303.03 842.06 a7.5 7.5 0 1 0 15 0 a7.5 7.5 0 1 0 -15 0zM367.99 954.56 a7.5 7.5 0 1 0 15 0 a7.5 7.5 0 1 0 -15 0zM303.03 992.06 a7.5 7.5 0 1 0 15 0 a7.5 7.5 0 1 0 -15 0zM238.08 954.56 a7.5 7.5 0 1 0 15 0 a7.5 7.5 0 1 0 -15 0zM238.08 879.56 a7.5 7.5 0 1 0 15 0 a7.5 7.5 0 1 0 -15 0zM497.9 504.56 a7.5 7.5 0 1 0 15 0 a7.5 7.5 0 1 0 -15 0zM562.85 542.06 a7.5 7.5 0 1 0 15 0 a7.5 7.5 0 1 0 -15 0zM562.85 617.06 a7.5 7.5 0 1 0 15 0 a7.5 7.5 0 1 0 -15 0zM497.9 654.56 a7.5 7.5 0 1 0 15 0 a7.5 7.5 0 1 0 -15 0zM432.94 617.06 a7.5 7.5 0 1 0 15 0 a7.5 7.5 0 1 0 -15 0zM432.94 542.06 a7.5 7.5 0 1 0 15 0 a7.5 7.5 0 1 0 -15 0zM627.8 654.56 a7.5 7.5 0 1 0 15 0 a7.5 7.5 0 1 0 -15 0zM627.8 729.56 a7.5 7.5 0 1 0 15 0 a7.5 7.5 0 1 0 -15 0zM562.85 767.06 a7.5 7.5 0 1 0 15 0 a7.5 7.5 0 1 0 -15 0zM497.9 729.56 a7.5 7.5 0 1 0 15 0 a7.5 7.5 0 1 0 -15 0zM562.85 842.06 a7.5 7.5 0 1 0 15 0 a7.5 7.5 0 1 0 -15 0zM627.8 879.56 a7.5 7.5 0 1 0 15 0 a7.5 7.5 0 1 0 -15 0zM627.8 954.56 a7.5 7.5 0 1 0 15 0 a7.5 7.5 0 1 0 -15 0zM562.85 992.06 a7.5 7.5 0 1 0 15 0 a7.5 7.5 0 1 0 -15 0zM497.9 954.56 a7.5 7.5 0 1 0 15 0 a7.5 7.5 0 1 0 -15 0zM497.9 879.56 a7.5 7.5 0 1 0 15 0 a7.5 7.5 0 1 0 -15 0zM692.76 -57.94 a7.5 7.5 0 1 0 15 0 a7.5 7.5 0 1 0 -15 0zM757.71 -20.44 a7.5 7.5 0 1 0 15 0 a7.5 7.5 0 1 0 -15 0zM757.71 54.56 a7.5 7.5 0 1 0 15 0 a7.5 7.5 0 1 0 -15 0zM692.76 92.06 a7.5 7.5 0 1 0 15 0 a7.5 7.5 0 1 0 -15 0zM627.8 54.56 a7.5 7.5 0 1 0 15 0 a7.5 7.5 0 1 0 -15 0zM627.8 -20.44 a7.5 7.5 0 1 0 15 0 a7.5 7.5 0 1 0 -15 0zM822.67 92.06 a7.5 7.5 0 1 0 15 0 a7.5 7.5 0 1 0 -15 0zM822.67 167.06 a7.5 7.5 0 1 0 15 0 a7.5 7.5 0 1 0 -15 0zM757.71 204.56 a7.5 7.5 0 1 0 15 0 a7.5 7.5 0 1 0 -15 0zM692.76 167.06 a7.5 7.5 0 1 0 15 0 a7.5 7.5 0 1 0 -15 0zM692.76 842.06 a7.5 7.5 0 1 0 15 0 a7.5 7.5 0 1 0 -15 0zM757.71 879.56 a7.5 7.5 0 1 0 15 0 a7.5 7.5 0 1 0 -15 0zM757.71 954.56 a7.5 7.5 0 1 0 15 0 a7.5 7.5 0 1 0 -15 0zM692.76 992.06 a7.5 7.5 0 1 0 15 0 a7.5 7.5 0 1 0 -15 0zM822.66 -57.94 a7.5 7.5 0 1 0 15 0 a7.5 7.5 0 1 0 -15 0zM887.62 -20.44 a7.5 7.5 0 1 0 15 0 a7.5 7.5 0 1 0 -15 0zM887.62 54.56 a7.5 7.5 0 1 0 15 0 a7.5 7.5 0 1 0 -15 0zM822.66 92.06 a7.5 7.5 0 1 0 15 0 a7.5 7.5 0 1 0 -15 0zM822.66 167.06 a7.5 7.5 0 1 0 15 0 a7.5 7.5 0 1 0 -15 0zM887.62 204.56 a7.5 7.5 0 1 0 15 0 a7.5 7.5 0 1 0 -15 0zM887.62 279.56 a7.5 7.5 0 1 0 15 0 a7.5 7.5 0 1 0 -15 0zM822.66 317.06 a7.5 7.5 0 1 0 15 0 a7.5 7.5 0 1 0 -15 0zM757.71 279.56 a7.5 7.5 0 1 0 15 0 a7.5 7.5 0 1 0 -15 0zM887.62 729.56 a7.5 7.5 0 1 0 15 0 a7.5 7.5 0 1 0 -15 0zM952.57 767.06 a7.5 7.5 0 1 0 15 0 a7.5 7.5 0 1 0 -15 0zM952.57 842.06 a7.5 7.5 0 1 0 15 0 a7.5 7.5 0 1 0 -15 0zM887.62 879.56 a7.5 7.5 0 1 0 15 0 a7.5 7.5 0 1 0 -15 0zM822.66 842.06 a7.5 7.5 0 1 0 15 0 a7.5 7.5 0 1 0 -15 0zM822.66 767.06 a7.5 7.5 0 1 0 15 0 a7.5 7.5 0 1 0 -15 0zM952.57 -57.94 a7.5 7.5 0 1 0 15 0 a7.5 7.5 0 1 0 -15 0zM1017.53 -20.44 a7.5 7.5 0 1 0 15 0 a7.5 7.5 0 1 0 -15 0zM1017.53 54.56 a7.5 7.5 0 1 0 15 0 a7.5 7.5 0 1 0 -15 0zM952.57 92.06 a7.5 7.5 0 1 0 15 0 a7.5 7.5 0 1 0 -15 0zM1082.48 92.06 a7.5 7.5 0 1 0 15 0 a7.5 7.5 0 1 0 -15 0zM1082.48 167.06 a7.5 7.5 0 1 0 15 0 a7.5 7.5 0 1 0 -15 0zM1017.53 204.56 a7.5 7.5 0 1 0 15 0 a7.5 7.5 0 1 0 -15 0zM952.57 167.06 a7.5 7.5 0 1 0 15 0 a7.5 7.5 0 1 0 -15 0zM1017.53 504.56 a7.5 7.5 0 1 0 15 0 a7.5 7.5 0 1 0 -15 0zM1082.48 542.06 a7.5 7.5 0 1 0 15 0 a7.5 7.5 0 1 0 -15 0zM1082.48 617.06 a7.5 7.5 0 1 0 15 0 a7.5 7.5 0 1 0 -15 0zM1017.53 654.56 a7.5 7.5 0 1 0 15 0 a7.5 7.5 0 1 0 -15 0zM952.57 617.06 a7.5 7.5 0 1 0 15 0 a7.5 7.5 0 1 0 -15 0zM952.57 542.06 a7.5 7.5 0 1 0 15 0 a7.5 7.5 0 1 0 -15 0zM1017.53 879.56 a7.5 7.5 0 1 0 15 0 a7.5 7.5 0 1 0 -15 0zM1017.53 954.56 a7.5 7.5 0 1 0 15 0 a7.5 7.5 0 1 0 -15 0zM952.57 992.06 a7.5 7.5 0 1 0 15 0 a7.5 7.5 0 1 0 -15 0zM887.62 954.56 a7.5 7.5 0 1 0 15 0 a7.5 7.5 0 1 0 -15 0zM1147.43 204.56 a7.5 7.5 0 1 0 15 0 a7.5 7.5 0 1 0 -15 0zM1147.43 279.56 a7.5 7.5 0 1 0 15 0 a7.5 7.5 0 1 0 -15 0zM1082.48 317.06 a7.5 7.5 0 1 0 15 0 a7.5 7.5 0 1 0 -15 0zM1017.53 279.56 a7.5 7.5 0 1 0 15 0 a7.5 7.5 0 1 0 -15 0zM1147.43 504.56 a7.5 7.5 0 1 0 15 0 a7.5 7.5 0 1 0 -15 0zM1212.39 542.06 a7.5 7.5 0 1 0 15 0 a7.5 7.5 0 1 0 -15 0zM1212.39 617.06 a7.5 7.5 0 1 0 15 0 a7.5 7.5 0 1 0 -15 0zM1147.43 654.56 a7.5 7.5 0 1 0 15 0 a7.5 7.5 0 1 0 -15 0zM1277.34 54.56 a7.5 7.5 0 1 0 15 0 a7.5 7.5 0 1 0 -15 0zM1342.29 92.06 a7.5 7.5 0 1 0 15 0 a7.5 7.5 0 1 0 -15 0zM1342.29 167.06 a7.5 7.5 0 1 0 15 0 a7.5 7.5 0 1 0 -15 0zM1277.34 204.56 a7.5 7.5 0 1 0 15 0 a7.5 7.5 0 1 0 -15 0zM1212.39 167.06 a7.5 7.5 0 1 0 15 0 a7.5 7.5 0 1 0 -15 0zM1212.39 92.06 a7.5 7.5 0 1 0 15 0 a7.5 7.5 0 1 0 -15 0zM1277.34 279.56 a7.5 7.5 0 1 0 15 0 a7.5 7.5 0 1 0 -15 0zM1212.39 317.06 a7.5 7.5 0 1 0 15 0 a7.5 7.5 0 1 0 -15 0zM1342.29 317.06 a7.5 7.5 0 1 0 15 0 a7.5 7.5 0 1 0 -15 0zM1342.29 392.06 a7.5 7.5 0 1 0 15 0 a7.5 7.5 0 1 0 -15 0zM1277.34 429.56 a7.5 7.5 0 1 0 15 0 a7.5 7.5 0 1 0 -15 0zM1212.39 392.06 a7.5 7.5 0 1 0 15 0 a7.5 7.5 0 1 0 -15 0zM1277.34 729.56 a7.5 7.5 0 1 0 15 0 a7.5 7.5 0 1 0 -15 0zM1342.29 767.06 a7.5 7.5 0 1 0 15 0 a7.5 7.5 0 1 0 -15 0zM1342.29 842.06 a7.5 7.5 0 1 0 15 0 a7.5 7.5 0 1 0 -15 0zM1277.34 879.56 a7.5 7.5 0 1 0 15 0 a7.5 7.5 0 1 0 -15 0zM1212.39 842.06 a7.5 7.5 0 1 0 15 0 a7.5 7.5 0 1 0 -15 0zM1212.39 767.06 a7.5 7.5 0 1 0 15 0 a7.5 7.5 0 1 0 -15 0zM1277.34 954.56 a7.5 7.5 0 1 0 15 0 a7.5 7.5 0 1 0 -15 0zM1212.39 992.06 a7.5 7.5 0 1 0 15 0 a7.5 7.5 0 1 0 -15 0zM1147.43 954.56 a7.5 7.5 0 1 0 15 0 a7.5 7.5 0 1 0 -15 0zM1147.43 879.56 a7.5 7.5 0 1 0 15 0 a7.5 7.5 0 1 0 -15 0zM1342.3 167.06 a7.5 7.5 0 1 0 15 0 a7.5 7.5 0 1 0 -15 0zM1407.25 204.56 a7.5 7.5 0 1 0 15 0 a7.5 7.5 0 1 0 -15 0zM1407.25 279.56 a7.5 7.5 0 1 0 15 0 a7.5 7.5 0 1 0 -15 0zM1342.3 317.06 a7.5 7.5 0 1 0 15 0 a7.5 7.5 0 1 0 -15 0zM1342.3 617.06 a7.5 7.5 0 1 0 15 0 a7.5 7.5 0 1 0 -15 0zM1407.25 654.56 a7.5 7.5 0 1 0 15 0 a7.5 7.5 0 1 0 -15 0zM1407.25 729.56 a7.5 7.5 0 1 0 15 0 a7.5 7.5 0 1 0 -15 0zM1342.3 767.06 a7.5 7.5 0 1 0 15 0 a7.5 7.5 0 1 0 -15 0zM1277.34 654.56 a7.5 7.5 0 1 0 15 0 a7.5 7.5 0 1 0 -15 0zM1472.2 767.06 a7.5 7.5 0 1 0 15 0 a7.5 7.5 0 1 0 -15 0zM1472.2 842.06 a7.5 7.5 0 1 0 15 0 a7.5 7.5 0 1 0 -15 0zM1407.25 879.56 a7.5 7.5 0 1 0 15 0 a7.5 7.5 0 1 0 -15 0zM1342.3 842.06 a7.5 7.5 0 1 0 15 0 a7.5 7.5 0 1 0 -15 0zM1472.2 167.06 a7.5 7.5 0 1 0 15 0 a7.5 7.5 0 1 0 -15 0zM1537.16 204.56 a7.5 7.5 0 1 0 15 0 a7.5 7.5 0 1 0 -15 0zM1537.16 279.56 a7.5 7.5 0 1 0 15 0 a7.5 7.5 0 1 0 -15 0zM1472.2 317.06 a7.5 7.5 0 1 0 15 0 a7.5 7.5 0 1 0 -15 0z" fill="#03305d"></path><path d="M74.27 806.75L117.58 831.75L117.58 881.75L74.27 906.75L30.97 881.75L30.97 831.75zM160.88 356.75L204.18 381.75L204.18 431.75L160.88 456.75L117.58 431.75L117.58 381.75zM117.58 431.75L160.88 456.75L160.88 506.75L117.58 531.75L74.27 506.75L74.27 456.75zM117.58 581.75L160.88 606.75L160.88 656.75L117.58 681.75L74.27 656.75L74.27 606.75zM160.88 656.75L204.18 681.75L204.18 731.75L160.88 756.75L117.58 731.75L117.58 681.75zM160.88 806.75L204.18 831.75L204.18 881.75L160.88 906.75L117.58 881.75L117.58 831.75zM204.18 281.75L247.48 306.75L247.48 356.75L204.18 381.75L160.88 356.75L160.88 306.75zM247.48 356.75L290.78 381.75L290.78 431.75L247.48 456.75L204.18 431.75L204.18 381.75zM204.18 431.75L247.48 456.75L247.48 506.75L204.18 531.75L160.88 506.75L160.88 456.75zM247.48 656.75L290.78 681.75L290.78 731.75L247.48 756.75L204.18 731.75L204.18 681.75zM247.48 806.75L290.78 831.75L290.78 881.75L247.48 906.75L204.18 881.75L204.18 831.75zM290.78 131.75L334.09 156.75L334.09 206.75L290.78 231.75L247.48 206.75L247.48 156.75zM377.39 -18.25L420.69 6.75L420.69 56.75L377.39 81.75L334.09 56.75L334.09 6.75zM377.39 131.75L420.69 156.75L420.69 206.75L377.39 231.75L334.09 206.75L334.09 156.75zM420.69 356.75L464 381.75L464 431.75L420.69 456.75L377.39 431.75L377.39 381.75zM420.69 806.75L464 831.75L464 881.75L420.69 906.75L377.39 881.75L377.39 831.75zM464 -18.25L507.3 6.75L507.3 56.75L464 81.75L420.69 56.75L420.69 6.75zM507.3 56.75L550.6 81.75L550.6 131.75L507.3 156.75L464 131.75L464 81.75zM464 131.75L507.3 156.75L507.3 206.75L464 231.75L420.69 206.75L420.69 156.75zM507.3 356.75L550.6 381.75L550.6 431.75L507.3 456.75L464 431.75L464 381.75zM464 431.75L507.3 456.75L507.3 506.75L464 531.75L420.69 506.75L420.69 456.75zM464 581.75L507.3 606.75L507.3 656.75L464 681.75L420.69 656.75L420.69 606.75zM464 881.75L507.3 906.75L507.3 956.75L464 981.75L420.69 956.75L420.69 906.75zM593.9 56.75L637.21 81.75L637.21 131.75L593.9 156.75L550.6 131.75L550.6 81.75zM593.9 206.75L637.21 231.75L637.21 281.75L593.9 306.75L550.6 281.75L550.6 231.75zM550.6 431.75L593.9 456.75L593.9 506.75L550.6 531.75L507.3 506.75L507.3 456.75zM593.9 656.75L637.21 681.75L637.21 731.75L593.9 756.75L550.6 731.75L550.6 681.75zM593.9 806.75L637.21 831.75L637.21 881.75L593.9 906.75L550.6 881.75L550.6 831.75zM680.51 506.75L723.81 531.75L723.81 581.75L680.51 606.75L637.21 581.75L637.21 531.75zM680.51 656.75L723.81 681.75L723.81 731.75L680.51 756.75L637.21 731.75L637.21 681.75zM723.81 131.75L767.11 156.75L767.11 206.75L723.81 231.75L680.51 206.75L680.51 156.75zM723.81 281.75L767.11 306.75L767.11 356.75L723.81 381.75L680.51 356.75L680.51 306.75zM723.81 431.75L767.11 456.75L767.11 506.75L723.81 531.75L680.51 506.75L680.51 456.75zM767.11 506.75L810.42 531.75L810.42 581.75L767.11 606.75L723.81 581.75L723.81 531.75zM723.81 581.75L767.11 606.75L767.11 656.75L723.81 681.75L680.51 656.75L680.51 606.75zM767.11 656.75L810.42 681.75L810.42 731.75L767.11 756.75L723.81 731.75L723.81 681.75zM723.81 731.75L767.11 756.75L767.11 806.75L723.81 831.75L680.51 806.75L680.51 756.75zM723.81 881.75L767.11 906.75L767.11 956.75L723.81 981.75L680.51 956.75L680.51 906.75zM810.42 281.75L853.72 306.75L853.72 356.75L810.42 381.75L767.11 356.75L767.11 306.75zM810.42 581.75L853.72 606.75L853.72 656.75L810.42 681.75L767.11 656.75L767.11 606.75zM810.42 731.75L853.72 756.75L853.72 806.75L810.42 831.75L767.11 806.75L767.11 756.75zM853.72 806.75L897.02 831.75L897.02 881.75L853.72 906.75L810.42 881.75L810.42 831.75zM897.02 281.75L940.32 306.75L940.32 356.75L897.02 381.75L853.72 356.75L853.72 306.75zM940.32 356.75L983.63 381.75L983.63 431.75L940.32 456.75L897.02 431.75L897.02 381.75zM940.32 506.75L983.63 531.75L983.63 581.75L940.32 606.75L897.02 581.75L897.02 531.75zM940.32 656.75L983.63 681.75L983.63 731.75L940.32 756.75L897.02 731.75L897.02 681.75zM983.63 431.75L1026.93 456.75L1026.93 506.75L983.63 531.75L940.32 506.75L940.32 456.75zM1026.93 656.75L1070.23 681.75L1070.23 731.75L1026.93 756.75L983.63 731.75L983.63 681.75zM1070.23 131.75L1113.53 156.75L1113.53 206.75L1070.23 231.75L1026.93 206.75L1026.93 156.75zM1070.23 281.75L1113.53 306.75L1113.53 356.75L1070.23 381.75L1026.93 356.75L1026.93 306.75zM1113.53 356.75L1156.84 381.75L1156.84 431.75L1113.53 456.75L1070.23 431.75L1070.23 381.75zM1070.23 731.75L1113.53 756.75L1113.53 806.75L1070.23 831.75L1026.93 806.75L1026.93 756.75zM1156.84 -18.25L1200.14 6.75L1200.14 56.75L1156.84 81.75L1113.53 56.75L1113.53 6.75zM1200.14 206.75L1243.44 231.75L1243.44 281.75L1200.14 306.75L1156.84 281.75L1156.84 231.75zM1200.14 656.75L1243.44 681.75L1243.44 731.75L1200.14 756.75L1156.84 731.75L1156.84 681.75zM1156.84 731.75L1200.14 756.75L1200.14 806.75L1156.84 831.75L1113.53 806.75L1113.53 756.75zM1156.84 881.75L1200.14 906.75L1200.14 956.75L1156.84 981.75L1113.53 956.75L1113.53 906.75zM1243.44 -18.25L1286.74 6.75L1286.74 56.75L1243.44 81.75L1200.14 56.75L1200.14 6.75zM1243.44 131.75L1286.74 156.75L1286.74 206.75L1243.44 231.75L1200.14 206.75L1200.14 156.75zM1286.74 206.75L1330.05 231.75L1330.05 281.75L1286.74 306.75L1243.44 281.75L1243.44 231.75zM1243.44 281.75L1286.74 306.75L1286.74 356.75L1243.44 381.75L1200.14 356.75L1200.14 306.75zM1286.74 356.75L1330.05 381.75L1330.05 431.75L1286.74 456.75L1243.44 431.75L1243.44 381.75zM1243.44 731.75L1286.74 756.75L1286.74 806.75L1243.44 831.75L1200.14 806.75L1200.14 756.75zM1243.44 881.75L1286.74 906.75L1286.74 956.75L1243.44 981.75L1200.14 956.75L1200.14 906.75zM1330.05 -18.25L1373.35 6.75L1373.35 56.75L1330.05 81.75L1286.74 56.75L1286.74 6.75zM1373.35 56.75L1416.65 81.75L1416.65 131.75L1373.35 156.75L1330.05 131.75L1330.05 81.75zM1373.35 206.75L1416.65 231.75L1416.65 281.75L1373.35 306.75L1330.05 281.75L1330.05 231.75zM1373.35 356.75L1416.65 381.75L1416.65 431.75L1373.35 456.75L1330.05 431.75L1330.05 381.75zM1373.35 506.75L1416.65 531.75L1416.65 581.75L1373.35 606.75L1330.05 581.75L1330.05 531.75zM1459.95 56.75L1503.26 81.75L1503.26 131.75L1459.95 156.75L1416.65 131.75L1416.65 81.75zM1416.65 131.75L1459.95 156.75L1459.95 206.75L1416.65 231.75L1373.35 206.75L1373.35 156.75zM1459.95 806.75L1503.26 831.75L1503.26 881.75L1459.95 906.75L1416.65 881.75L1416.65 831.75z" stroke="rgba(6, 80, 156, 0.93)" stroke-width="2"></path></g><defs><mask id="SvgjsMask1003"><rect width="1440" height="900" fill="#ffffff"></rect></mask></defs></svg>