<svg xmlns="http://www.w3.org/2000/svg" version="1.1" xmlns:xlink="http://www.w3.org/1999/xlink" xmlns:svgjs="http://svgjs.dev/svgjs" width="1920" height="1080" preserveAspectRatio="none" viewBox="0 0 1920 1080"><g mask="url(&quot;#SvgjsMask1026&quot;)" fill="none"><rect width="1920" height="1080" x="0" y="0" fill="rgba(14, 55, 79, 1)"></rect><path d="M523 517L522 935" stroke-width="6" stroke="url(&quot;#SvgjsLinearGradient1027&quot;)" stroke-linecap="round" class="Up"></path><path d="M314 990L313 361" stroke-width="6" stroke="url(&quot;#SvgjsLinearGradient1028&quot;)" stroke-linecap="round" class="Down"></path><path d="M1628 683L1627 378" stroke-width="10" stroke="url(&quot;#SvgjsLinearGradient1028&quot;)" stroke-linecap="round" class="Down"></path><path d="M1807 1075L1806 1378" stroke-width="10" stroke="url(&quot;#SvgjsLinearGradient1028&quot;)" stroke-linecap="round" class="Down"></path><path d="M1162 228L1161 547" stroke-width="6" stroke="url(&quot;#SvgjsLinearGradient1027&quot;)" stroke-linecap="round" class="Up"></path><path d="M135 797L134 1459" stroke-width="10" stroke="url(&quot;#SvgjsLinearGradient1027&quot;)" stroke-linecap="round" class="Up"></path><path d="M1637 941L1636 1304" stroke-width="10" stroke="url(&quot;#SvgjsLinearGradient1027&quot;)" stroke-linecap="round" class="Up"></path><path d="M1184 370L1183 766" stroke-width="10" stroke="url(&quot;#SvgjsLinearGradient1028&quot;)" stroke-linecap="round" class="Down"></path><path d="M137 278L136 -333" stroke-width="8" stroke="url(&quot;#SvgjsLinearGradient1028&quot;)" stroke-linecap="round" class="Down"></path><path d="M1410 224L1409 -68" stroke-width="8" stroke="url(&quot;#SvgjsLinearGradient1027&quot;)" stroke-linecap="round" class="Up"></path><path d="M1045 605L1044 163" stroke-width="6" stroke="url(&quot;#SvgjsLinearGradient1027&quot;)" stroke-linecap="round" class="Up"></path><path d="M1732 866L1731 1238" stroke-width="10" stroke="url(&quot;#SvgjsLinearGradient1027&quot;)" stroke-linecap="round" class="Up"></path><path d="M1510 905L1509 209" stroke-width="8" stroke="url(&quot;#SvgjsLinearGradient1028&quot;)" stroke-linecap="round" class="Down"></path><path d="M765 172L764 720" stroke-width="6" stroke="url(&quot;#SvgjsLinearGradient1028&quot;)" stroke-linecap="round" class="Down"></path><path d="M1121 56L1120 681" stroke-width="10" stroke="url(&quot;#SvgjsLinearGradient1028&quot;)" stroke-linecap="round" class="Down"></path><path d="M341 1040L340 322" stroke-width="10" stroke="url(&quot;#SvgjsLinearGradient1028&quot;)" stroke-linecap="round" class="Down"></path><path d="M428 787L427 1110" stroke-width="10" stroke="url(&quot;#SvgjsLinearGradient1028&quot;)" stroke-linecap="round" class="Down"></path><path d="M1319 988L1318 369" stroke-width="8" stroke="url(&quot;#SvgjsLinearGradient1028&quot;)" stroke-linecap="round" class="Down"></path><path d="M1021 273L1020 696" stroke-width="6" stroke="url(&quot;#SvgjsLinearGradient1028&quot;)" stroke-linecap="round" class="Down"></path><path d="M1605 795L1604 1224" stroke-width="10" stroke="url(&quot;#SvgjsLinearGradient1028&quot;)" stroke-linecap="round" class="Down"></path><path d="M45 367L44 -419" stroke-width="6" stroke="url(&quot;#SvgjsLinearGradient1028&quot;)" stroke-linecap="round" class="Down"></path><path d="M1009 752L1008 141" stroke-width="8" stroke="url(&quot;#SvgjsLinearGradient1028&quot;)" stroke-linecap="round" class="Down"></path><path d="M723 236L722 1024" stroke-width="6" stroke="url(&quot;#SvgjsLinearGradient1027&quot;)" stroke-linecap="round" class="Up"></path><path d="M226 676L225 1310" stroke-width="8" stroke="url(&quot;#SvgjsLinearGradient1028&quot;)" stroke-linecap="round" class="Down"></path><path d="M733 46L732 425" stroke-width="8" stroke="url(&quot;#SvgjsLinearGradient1027&quot;)" stroke-linecap="round" class="Up"></path><path d="M407 423L406 -133" stroke-width="8" stroke="url(&quot;#SvgjsLinearGradient1028&quot;)" stroke-linecap="round" class="Down"></path><path d="M639 882L638 1503" stroke-width="10" stroke="url(&quot;#SvgjsLinearGradient1027&quot;)" stroke-linecap="round" class="Up"></path><path d="M442 461L441 108" stroke-width="10" stroke="url(&quot;#SvgjsLinearGradient1028&quot;)" stroke-linecap="round" class="Down"></path><path d="M1059 446L1058 -11" stroke-width="6" stroke="url(&quot;#SvgjsLinearGradient1027&quot;)" stroke-linecap="round" class="Up"></path><path d="M708 1076L707 1550" stroke-width="10" stroke="url(&quot;#SvgjsLinearGradient1028&quot;)" stroke-linecap="round" class="Down"></path><path d="M492 602L491 1166" stroke-width="10" stroke="url(&quot;#SvgjsLinearGradient1028&quot;)" stroke-linecap="round" class="Down"></path><path d="M1901 900L1900 1382" stroke-width="8" stroke="url(&quot;#SvgjsLinearGradient1027&quot;)" stroke-linecap="round" class="Up"></path><path d="M697 432L696 -182" stroke-width="6" stroke="url(&quot;#SvgjsLinearGradient1027&quot;)" stroke-linecap="round" class="Up"></path><path d="M1622 806L1621 1523" stroke-width="6" stroke="url(&quot;#SvgjsLinearGradient1028&quot;)" stroke-linecap="round" class="Down"></path><path d="M312 620L311 1233" stroke-width="10" stroke="url(&quot;#SvgjsLinearGradient1027&quot;)" stroke-linecap="round" class="Up"></path><path d="M1637 569L1636 -2" stroke-width="10" stroke="url(&quot;#SvgjsLinearGradient1028&quot;)" stroke-linecap="round" class="Down"></path><path d="M715 746L714 1266" stroke-width="6" stroke="url(&quot;#SvgjsLinearGradient1027&quot;)" stroke-linecap="round" class="Up"></path><path d="M769 387L768 -112" stroke-width="8" stroke="url(&quot;#SvgjsLinearGradient1027&quot;)" stroke-linecap="round" class="Up"></path><path d="M184 728L183 318" stroke-width="8" stroke="url(&quot;#SvgjsLinearGradient1028&quot;)" stroke-linecap="round" class="Down"></path><path d="M1446 66L1445 -702" stroke-width="10" stroke="url(&quot;#SvgjsLinearGradient1028&quot;)" stroke-linecap="round" class="Down"></path><path d="M1174 24L1173 -387" stroke-width="10" stroke="url(&quot;#SvgjsLinearGradient1028&quot;)" stroke-linecap="round" class="Down"></path><path d="M1065 899L1064 580" stroke-width="8" stroke="url(&quot;#SvgjsLinearGradient1028&quot;)" stroke-linecap="round" class="Down"></path><path d="M605 987L604 1353" stroke-width="10" stroke="url(&quot;#SvgjsLinearGradient1028&quot;)" stroke-linecap="round" class="Down"></path><path d="M1591 277L1590 -396" stroke-width="6" stroke="url(&quot;#SvgjsLinearGradient1027&quot;)" stroke-linecap="round" class="Up"></path><path d="M1635 1003L1634 1540" stroke-width="8" stroke="url(&quot;#SvgjsLinearGradient1028&quot;)" stroke-linecap="round" class="Down"></path><path d="M1761 767L1760 213" stroke-width="8" stroke="url(&quot;#SvgjsLinearGradient1027&quot;)" stroke-linecap="round" class="Up"></path><path d="M1405 345L1404 -337" stroke-width="8" stroke="url(&quot;#SvgjsLinearGradient1028&quot;)" stroke-linecap="round" class="Down"></path><path d="M783 123L782 719" stroke-width="10" stroke="url(&quot;#SvgjsLinearGradient1027&quot;)" stroke-linecap="round" class="Up"></path></g><defs><mask id="SvgjsMask1026"><rect width="1920" height="1080" fill="#ffffff"></rect></mask><linearGradient x1="0%" y1="100%" x2="0%" y2="0%" id="SvgjsLinearGradient1027"><stop stop-color="rgba(55, 83, 131, 0)" offset="0"></stop><stop stop-color="rgba(55, 83, 131, 1)" offset="1"></stop></linearGradient><linearGradient x1="0%" y1="0%" x2="0%" y2="100%" id="SvgjsLinearGradient1028"><stop stop-color="rgba(55, 83, 131, 0)" offset="0"></stop><stop stop-color="rgba(55, 83, 131, 1)" offset="1"></stop></linearGradient></defs></svg>